#VRML V2.0 utf8
# 3D model generated by easyeda2kicad.py (https://github.com/uPesy/easyeda2kicad.py)

Shape{
    appearance Appearance {
        material  Material 	{
            diffuseColor 0.10980392156862745 0.10980392156862745 0.10980392156862745
            specularColor 0.0784313725490196 0.0784313725490196 0.0784313725490196
            ambientIntensity 0.2
            transparency 0
            shininess 0.5
        }
    }
    geometry IndexedFaceSet {
        ccw TRUE
        solid FALSE
        coord DEF co Coordinate {
            point [
                -0.0384 -0.0429 0.2362, -0.0471 -0.0429 0.2362, -0.0516 -0.0352 0.2362, 0.0187 -0.0518 0.2362, 0.0199 -0.0614 0.2362, 0.0149 -0.0429 0.2362, 0.019 -0.0691 0.2362, -0.0425 -0.138 0.2362, -0.0425 -0.1082 0.2362, 0.0276 -0.138 0.2362, 1.9409 -0.0352 0.2362, 0.0276 -0.1485 0.2362, 1.9409 -1.1417 0.2362, -0.0512 -0.1485 0.2362, -0.0516 -1.1417 0.2362, 0.0169 -0.075 0.2362, 0.0132 -0.0806 0.2362, 0.0079 -0.0853 0.2362, 0.0018 -0.0885 0.2362, -0.0067 -0.0906 0.2362, -0.0126 -0.0909 0.2362, -0.0485 -0.082 0.2362, -0.0512 -0.1082 0.2362, -0.0511 -0.0743 0.2362, -0.0516 -0.0692 0.2362, 0.0252 -0.0785 0.2362, 0.0209 -0.0859 0.2362, 0.0142 -0.0927 0.2362, -0.0443 -0.0884 0.2362, -0.0381 -0.0943 0.2362, -0.0306 -0.0984 0.2362, -0.0222 -0.1008 0.2362, 0.0278 -0.0699 0.2362, 0.0285 -0.0614 0.2362, 0.0279 -0.052 0.2362, -0.0211 -0.0901 0.2362, -0.0279 -0.088 0.2362, -0.0334 -0.0847 0.2362, -0.0133 -0.1015 0.2362, -0.0021 -0.1004 0.2362, 0.0069 -0.0973 0.2362, -0.0372 -0.0811 0.2362, -0.0405 -0.0762 0.2362, -0.0427 -0.0704 0.2362, -0.0435 -0.0631 0.2362, -0.0423 -0.0527 0.2362, -0.0392 -0.0443 0.2362, 0.0254 -0.0429 0.2362, -0.0505 -0.0513 0.2362, -0.0516 -0.0593 0.2362, -1.9409 -0.0352 0.2362, -0.0521 -0.0624 0.2362, -1.9409 -1.1417 0.2362, -0.0521 -0.0646 0.2362, -0.0512 0.0147 0.2362, -0.0512 -0.0276 0.2362, 0.0276 -0.0276 0.2362, -0.0213 0.0923 0.2362, -0.0296 0.0895 0.2362, -0.0512 0.0992 0.2362, -0.0366 0.085 0.2362, 0.0189 0.0128 0.2362, 0.0189 -0.017 0.2362, -0.007 -0.017 0.2362, 0.0276 0.129 0.2362, 0.0276 0.1395 0.2362, 1.9409 1.1417 0.2362, 0.0276 0.0128 0.2362, -0.0516 1.1417 0.2362, -0.0156 0.0109 0.2362, -0.0156 -0.017 0.2362, -0.0425 -0.017 0.2362, -0.0428 0.0785 0.2362, -0.0476 0.0703 0.2362, -0.0503 0.0612 0.2362, 0.0089 0.0885 0.2362, 0.0013 0.0918 0.2362, -0.0069 0.0933 0.2362, -0.0108 0.0934 0.2362, -0.0425 0.0147 0.2362, -0.0512 0.0301 0.2362, -0.007 0.0109 0.2362, 0.0276 0.0301 0.2362, -0.0512 0.0515 0.2362, 0.0231 0.0729 0.2362, 0.0181 0.0807 0.2362, 0.0152 0.0837 0.2362, 0.0276 0.0523 0.2362, 0.0264 0.0637 0.2362, -0.0512 0.1703 0.2362, -0.0512 0.1587 0.2362, -0.0291 0.1508 0.2362, -0.0291 0.1182 0.2362, -0.0512 0.1107 0.2362, -1.9409 1.1417 0.2362, 1.3425 0.7874 1.3386, 1.6575 0.7874 1.3386, 1.9409 0.7918 1.3386, -1.6575 0.7874 1.3386, -1.6062 0.7874 1.3386, -1.6062 0.7918 1.3386, 1.7441 1.1417 1.3386, 1.0 1.1417 1.3386, 1.0 0.7981 1.3386, -1.7441 1.1417 1.3386, -1.9409 0.9449 1.3386, -1.9409 0.7981 1.3386, -1.5002 -0.881 1.3386, -1.522 -0.8956 1.3386, -1.5002 -1.0816 1.3386, -1.5434 -1.1117 1.3386, -1.4714 -1.0816 1.3386, -1.2745 -1.1117 1.3386, -1.4714 -0.8425 1.3386, -1.2745 -0.7559 1.3386, -1.4826 -0.8425 1.3386, -1.5434 -0.7559 1.3386, -1.517 -0.8647 1.3386, -1.5434 -0.9046 1.3386, -1.5505 -0.9076 1.3386, -1.6062 -1.1117 1.3386, -1.5549 -0.9088 1.3386, -1.6062 -0.7559 1.3386, -1.5549 -0.88 1.3386, -1.5434 -0.8753 1.3386, -1.5153 1.0461 1.3386, -1.4966 1.0779 1.3386, -1.5434 1.1417 1.3386, -1.4785 1.0966 1.3386, -1.4593 1.1088 1.3386, -1.5434 0.7981 1.3386, -1.446 0.8003 1.3386, -1.4662 0.8087 1.3386, -1.4365 1.1164 1.3386, -1.4118 1.1189 1.3386, -1.2745 1.1417 1.3386, -1.3851 1.1155 1.3386, -1.3647 1.1076 1.3386, -1.314 0.8687 1.3386, -1.3328 0.8368 1.3386, -1.2745 0.7981 1.3386, -1.3508 0.8182 1.3386, -1.3704 0.8059 1.3386, -1.3458 1.0941 1.3386, -1.3267 1.0719 1.3386, -1.3129 1.0464 1.3386, -1.4846 0.8222 1.3386, -1.5037 0.845 1.3386, -1.5126 0.8605 1.3386, -1.5265 0.9004 1.3386, -1.5319 0.9538 1.3386, -1.5273 1.0065 1.3386, -1.3009 1.0037 1.3386, -1.2976 0.9613 1.3386, -1.3022 0.9083 1.3386, -1.4301 0.7981 1.3386, -1.5434 0.7918 1.3386, -1.4159 0.7962 1.3386, -1.2745 0.7918 1.3386, -1.395 0.7981 1.3386, -1.3937 0.7983 1.3386, -1.9409 -0.7559 1.3386, -1.9409 -0.9449 1.3386, -1.7741 -1.1117 1.3386, -1.7441 -1.1417 1.3386, 1.9409 0.9449 1.3386, 1.0 -1.1417 1.3386, 1.7441 -1.1417 1.3386, 1.7741 -1.1117 1.3386, -1.5434 0.7874 1.3386, -1.3425 0.7874 1.3386, -1.3425 -0.6693 1.3386, -1.9409 0.7918 1.3386, -1.6575 -0.6693 1.3386, -1.6062 -0.6693 1.3386, -1.5434 -0.6693 1.3386, -1.2208 0.8001 1.3386, -1.2515 0.8001 1.3386, -1.0518 1.115 1.3386, -1.0518 0.8001 1.3386, -0.8546 0.7981 1.3386, -1.0887 0.8001 1.3386, -1.2208 1.0651 1.3386, -1.2217 1.0651 1.3386, -1.2169 1.0547 1.3386, -1.2209 1.0431 1.3386, -1.2124 1.0446 1.3386, -1.2515 1.115 1.3386, -1.2131 1.115 1.3386, -0.8546 1.1417 1.3386, -1.0825 1.115 1.3386, -1.0825 0.8996 1.3386, -1.0815 0.8538 1.3386, -1.0809 0.8538 1.3386, -1.0864 0.8648 1.3386, -1.0822 0.8767 1.3386, -1.0918 0.8755 1.3386, -1.6062 1.1417 1.3386, -1.6062 0.7981 1.3386, 1.9409 -0.7559 1.3386, 1.3425 -0.6693 1.3386, 1.0 0.7918 1.3386, 1.9409 0.7981 1.3386, 0.3425 0.7874 1.3386, 0.6575 0.7874 1.3386, 1.0 -0.7559 1.3386, 1.6575 -0.6693 1.3386, 0.6575 -0.6693 1.3386, 0.3425 -0.6693 1.3386, 0.0 -0.7559 1.3386, 0.0 1.1417 1.3386, 0.0 0.7981 1.3386, 0.0 0.7918 1.3386, -0.3425 0.7874 1.3386, -0.6575 0.7874 1.3386, -0.8546 0.7918 1.3386, -0.6575 -0.6693 1.3386, -0.8546 -0.7559 1.3386, -0.3425 -0.6693 1.3386, 1.0 -1.1117 1.3386, 0.0 -1.1117 1.3386, -0.8546 -1.1117 1.3386, -1.2208 1.021 1.3386, -1.6062 -1.1417 1.3386, -1.5434 -1.1417 1.3386, -1.2745 -1.1417 1.3386, -0.8546 -1.1417 1.3386, 0.0 -1.1417 1.3386, 1.9409 -0.9449 1.3386, 1.9409 -0.9449 1.3386
            ]
        }
        coordIndex [
            0,1,2,-1,3,4,5,-1,5,4,6,-1,7,8,9,-1,9,8,10,-1,9,10,11,-1,11,10,12,-1,11,12,13,-1,13,12,14,-1,6,15,5,-1,5,15,16,-1,5,16,17,-1,17,18,5,-1,5,18,19,-1,5,19,20,-1,21,22,23,-1,23,22,24,-1,25,10,26,-1,26,10,27,-1,21,28,22,-1,22,28,29,-1,22,29,8,-1,8,29,30,-1,8,30,31,-1,25,32,10,-1,10,32,33,-1,10,33,34,-1,20,35,5,-1,5,35,36,-1,5,36,37,-1,31,38,8,-1,8,38,39,-1,8,39,10,-1,10,39,40,-1,10,40,27,-1,37,41,5,-1,5,41,42,-1,5,42,43,-1,43,44,5,-1,5,44,45,-1,5,45,46,-1,46,0,5,-1,5,0,10,-1,5,10,47,-1,47,10,34,-1,1,48,2,-1,2,48,49,-1,2,49,50,-1,50,49,51,-1,50,51,52,-1,52,51,53,-1,52,53,14,-1,14,53,24,-1,14,24,13,-1,13,24,22,-1,54,55,2,-1,2,55,56,-1,57,58,59,-1,59,58,60,-1,61,62,63,-1,64,65,66,-1,0,2,10,-1,10,2,56,-1,10,56,66,-1,66,56,67,-1,66,67,61,-1,66,65,68,-1,69,70,71,-1,60,72,59,-1,59,72,73,-1,59,73,74,-1,75,76,64,-1,64,76,77,-1,64,77,59,-1,59,77,78,-1,59,78,57,-1,71,79,69,-1,69,79,80,-1,69,80,81,-1,81,80,82,-1,79,54,80,-1,80,54,2,-1,80,2,83,-1,84,85,64,-1,64,85,86,-1,64,86,75,-1,63,81,61,-1,61,81,82,-1,61,82,66,-1,66,82,87,-1,66,87,64,-1,64,87,88,-1,64,88,84,-1,89,90,2,-1,91,92,90,-1,90,92,93,-1,90,93,2,-1,2,93,59,-1,2,59,83,-1,83,59,74,-1,50,94,2,-1,2,94,68,-1,2,68,89,-1,89,68,65,-1,95,96,97,-1,98,99,100,-1,101,102,103,-1,104,105,106,-1,107,108,109,-1,109,108,110,-1,109,110,111,-1,111,110,112,-1,111,112,113,-1,113,112,114,-1,113,114,115,-1,115,114,116,-1,115,116,117,-1,108,118,110,-1,110,118,119,-1,110,119,120,-1,120,119,121,-1,120,121,122,-1,122,121,123,-1,122,123,116,-1,116,123,124,-1,116,124,117,-1,125,126,127,-1,127,126,128,-1,127,128,129,-1,130,131,132,-1,129,133,127,-1,127,133,134,-1,127,134,135,-1,135,134,136,-1,135,136,137,-1,138,139,140,-1,140,139,141,-1,140,141,142,-1,137,143,135,-1,135,143,144,-1,135,144,145,-1,132,146,130,-1,130,146,147,-1,130,147,148,-1,148,149,130,-1,130,149,150,-1,130,150,127,-1,127,150,151,-1,127,151,125,-1,145,152,135,-1,135,152,153,-1,135,153,140,-1,140,153,154,-1,140,154,138,-1,131,130,155,-1,155,130,156,-1,155,156,157,-1,157,158,159,-1,159,158,140,-1,159,140,160,-1,160,140,142,-1,161,162,122,-1,122,162,163,-1,122,163,120,-1,120,163,164,-1,101,103,165,-1,166,167,168,-1,156,169,170,-1,157,156,158,-1,158,156,170,-1,158,170,114,-1,114,170,171,-1,114,171,116,-1,172,161,173,-1,173,161,122,-1,173,122,174,-1,174,122,116,-1,174,116,175,-1,175,116,171,-1,176,177,140,-1,178,179,180,-1,180,179,181,-1,182,183,184,-1,184,183,185,-1,184,185,186,-1,186,185,181,-1,140,177,135,-1,135,177,187,-1,135,187,188,-1,180,189,178,-1,178,189,135,-1,178,135,190,-1,190,135,188,-1,190,188,191,-1,192,193,194,-1,194,193,195,-1,191,188,195,-1,195,188,196,-1,195,196,194,-1,127,197,130,-1,130,197,198,-1,130,198,156,-1,156,198,100,-1,156,100,169,-1,169,100,99,-1,197,104,198,-1,198,104,106,-1,198,106,100,-1,100,106,172,-1,100,172,98,-1,98,172,173,-1,97,96,199,-1,200,95,201,-1,201,95,97,-1,201,97,103,-1,103,97,202,-1,103,202,165,-1,203,204,201,-1,201,204,205,-1,201,205,200,-1,200,205,199,-1,200,199,206,-1,206,199,96,-1,207,208,209,-1,102,210,103,-1,103,210,211,-1,103,211,201,-1,201,211,212,-1,201,212,203,-1,213,209,212,-1,212,209,208,-1,212,208,203,-1,214,215,216,-1,216,215,217,-1,216,217,218,-1,210,189,211,-1,211,189,180,-1,211,180,212,-1,212,180,215,-1,212,215,213,-1,213,215,214,-1,204,207,205,-1,205,207,209,-1,205,209,219,-1,219,209,220,-1,213,218,209,-1,209,218,217,-1,209,217,220,-1,220,217,221,-1,185,222,181,-1,181,222,176,-1,181,176,180,-1,180,176,140,-1,180,140,215,-1,215,140,158,-1,215,158,217,-1,217,158,114,-1,217,114,221,-1,221,114,112,-1,164,223,120,-1,120,223,224,-1,120,224,110,-1,110,224,225,-1,110,225,112,-1,112,225,226,-1,112,226,221,-1,221,226,227,-1,221,227,220,-1,220,227,166,-1,220,166,219,-1,219,166,168,-1,219,168,205,-1,205,168,228,-1,205,228,199,-1,
        ]
    }
}
Shape{
    appearance Appearance {
        material  Material 	{
            diffuseColor 1.0 1.0 1.0
            specularColor 0.8784313725490196 0.8784313725490196 0.8784313725490196
            ambientIntensity 0.2
            transparency 0
            shininess 0.5
        }
    }
    geometry IndexedFaceSet {
        ccw TRUE
        solid FALSE
        coord DEF co Coordinate {
            point [
                -1.3622 -0.3346 1.1811, -1.3622 -0.3346 1.1417, -1.3819 -0.3346 1.1811, -1.3819 -0.3346 1.1417, -1.6378 -0.3346 1.1417, -1.6378 -0.3346 1.1811, -1.6181 -0.3346 1.1417, -1.6181 -0.3346 1.1811, -1.6181 -0.3346 1.1811
            ]
        }
        coordIndex [
            0,1,2,-1,2,1,3,-1,4,5,6,-1,6,5,7,-1,
        ]
    }
}
Shape{
    appearance Appearance {
        material  Material 	{
            diffuseColor 1.0 1.0 1.0
            specularColor 0.30196078431372547 0.30196078431372547 0.30196078431372547
            ambientIntensity 0.2
            transparency 0
            shininess 0.5
        }
    }
    geometry IndexedFaceSet {
        ccw TRUE
        solid FALSE
        coord DEF co Coordinate {
            point [
                -1.6378 -0.3346 1.1417, -1.6181 -0.3346 1.1417, -1.6181 0.0591 1.1417, -1.3819 -0.3346 1.1417, -1.3622 -0.3346 1.1417, -1.3819 0.0591 1.1417, -1.3622 0.4528 1.1417, -1.6378 0.4528 1.1417, -1.6378 0.4528 1.1417
            ]
        }
        coordIndex [
            0,1,2,-1,3,4,5,-1,5,4,6,-1,5,6,2,-1,2,6,7,-1,2,7,0,-1,
        ]
    }
}
Shape{
    appearance Appearance {
        material  Material 	{
            diffuseColor 1.0 1.0 1.0
            specularColor 0.8784313725490196 0.8784313725490196 0.8784313725490196
            ambientIntensity 0.2
            transparency 0
            shininess 0.5
        }
    }
    geometry IndexedFaceSet {
        ccw TRUE
        solid FALSE
        coord DEF co Coordinate {
            point [
                -0.3622 -0.3346 1.1811, -0.3622 -0.3346 1.1417, -0.3819 -0.3346 1.1811, -0.3819 -0.3346 1.1417, -0.6378 -0.3346 1.1417, -0.6378 -0.3346 1.1811, -0.6181 -0.3346 1.1417, -0.6181 -0.3346 1.1811, -0.6181 -0.3346 1.1811
            ]
        }
        coordIndex [
            0,1,2,-1,2,1,3,-1,4,5,6,-1,6,5,7,-1,
        ]
    }
}
Shape{
    appearance Appearance {
        material  Material 	{
            diffuseColor 1.0 1.0 1.0
            specularColor 0.30196078431372547 0.30196078431372547 0.30196078431372547
            ambientIntensity 0.2
            transparency 0
            shininess 0.5
        }
    }
    geometry IndexedFaceSet {
        ccw TRUE
        solid FALSE
        coord DEF co Coordinate {
            point [
                -0.6378 -0.3346 1.1417, -0.6181 -0.3346 1.1417, -0.6181 0.0591 1.1417, -0.3819 -0.3346 1.1417, -0.3622 -0.3346 1.1417, -0.3819 0.0591 1.1417, -0.3622 0.4528 1.1417, -0.6378 0.4528 1.1417, -0.6378 0.4528 1.1417
            ]
        }
        coordIndex [
            0,1,2,-1,3,4,5,-1,5,4,6,-1,5,6,2,-1,2,6,7,-1,2,7,0,-1,
        ]
    }
}
Shape{
    appearance Appearance {
        material  Material 	{
            diffuseColor 0.9686274509803922 0.8784313725490196 0.6
            specularColor 0.6784313725490196 0.615686274509804 0.4196078431372549
            ambientIntensity 0.2
            transparency 0
            shininess 0.5
        }
    }
    geometry IndexedFaceSet {
        ccw TRUE
        solid FALSE
        coord DEF co Coordinate {
            point [
                1.5984 -1.9291 0.0984, 1.4016 -1.9291 0.0984, 1.5984 -1.9291 0.0, 1.4016 -1.9291 0.0, 1.1969 -1.489 0.3178, 1.1969 -1.3877 0.5526, 1.1969 -1.3818 0.3178, 1.1969 -1.2973 0.5137, 1.5984 -1.4855 0.0773, 1.4016 -1.4855 0.0773, 1.5984 -1.4764 0.0984, 1.4016 -1.4764 0.0984, 1.8031 -1.3818 0.3178, 1.8031 -1.2973 0.5137, 1.8031 -1.489 0.3178, 1.8031 -1.3877 0.5526, 1.3849 -1.5759 0.1163, 1.6151 -1.5759 0.1163, 1.5984 -1.603 0.0, 1.4016 -1.603 0.0, 1.4016 -1.5735 0.0034, 1.5984 -1.5735 0.0034, 1.4016 -1.5455 0.0136, 1.5984 -1.5455 0.0136, 1.4016 -1.5207 0.0299, 1.5984 -1.5207 0.0299, 1.4016 -1.5003 0.0516, 1.5984 -1.5003 0.0516, 1.5992 -1.5962 0.0992, 1.4008 -1.5962 0.0992, 1.4014 -1.5995 0.0986, 1.4016 -1.603 0.0984, 1.5984 -1.603 0.0984, 1.5986 -1.5995 0.0986, 1.3999 -1.5929 0.1002, 1.6001 -1.5929 0.1002, 1.3986 -1.5897 0.1016, 1.6014 -1.5897 0.1016, 1.6049 -1.584 0.1053, 1.3951 -1.584 0.1053, 1.6095 -1.5793 0.1103, 1.3905 -1.5793 0.1103, 0.5984 -1.9291 0.0984, 0.4016 -1.9291 0.0984, 0.5984 -1.9291 0.0, 0.4016 -1.9291 0.0, 0.1969 -1.489 0.3178, 0.1969 -1.3877 0.5526, 0.1969 -1.3818 0.3178, 0.1969 -1.2973 0.5137, 0.5984 -1.4855 0.0773, 0.4016 -1.4855 0.0773, 0.5984 -1.4764 0.0984, 0.4016 -1.4764 0.0984, 0.8031 -1.3818 0.3178, 0.8031 -1.2973 0.5137, 0.8031 -1.489 0.3178, 0.8031 -1.3877 0.5526, 0.3849 -1.5759 0.1163, 0.6151 -1.5759 0.1163, 0.5984 -1.603 0.0, 0.4016 -1.603 0.0, 0.4016 -1.5735 0.0034, 0.5984 -1.5735 0.0034, 0.4016 -1.5455 0.0136, 0.5984 -1.5455 0.0136, 0.4016 -1.5207 0.0299, 0.5984 -1.5207 0.0299, 0.4016 -1.5003 0.0516, 0.5984 -1.5003 0.0516, 0.4014 -1.5995 0.0986, 0.4016 -1.603 0.0984, 0.5984 -1.603 0.0984, 0.5986 -1.5995 0.0986, 0.5992 -1.5962 0.0992, 0.4008 -1.5962 0.0992, 0.3999 -1.5929 0.1002, 0.6001 -1.5929 0.1002, 0.6014 -1.5897 0.1016, 0.3986 -1.5897 0.1016, 0.6049 -1.584 0.1053, 0.3951 -1.584 0.1053, 0.6095 -1.5793 0.1103, 0.3905 -1.5793 0.1103, 0.3905 -1.5793 0.1103
            ]
        }
        coordIndex [
            0,1,2,-1,2,1,3,-1,4,5,6,-1,6,5,7,-1,8,9,10,-1,10,9,11,-1,10,11,12,-1,12,11,13,-1,13,11,6,-1,13,6,7,-1,12,13,14,-1,14,13,15,-1,16,17,4,-1,4,17,14,-1,4,14,5,-1,5,14,15,-1,18,19,20,-1,18,20,21,-1,21,20,22,-1,21,22,23,-1,23,22,24,-1,23,24,25,-1,25,24,26,-1,25,26,27,-1,27,26,9,-1,27,9,8,-1,28,29,30,-1,31,32,30,-1,30,32,33,-1,30,33,28,-1,29,28,34,-1,34,28,35,-1,34,35,36,-1,35,37,36,-1,36,37,38,-1,36,38,39,-1,39,38,40,-1,39,40,41,-1,41,40,17,-1,41,17,16,-1,2,3,18,-1,18,3,19,-1,32,31,0,-1,0,31,1,-1,42,43,44,-1,44,43,45,-1,46,47,48,-1,48,47,49,-1,50,51,52,-1,52,51,53,-1,52,53,54,-1,54,53,55,-1,55,53,48,-1,55,48,49,-1,54,55,56,-1,56,55,57,-1,58,59,46,-1,46,59,56,-1,46,56,47,-1,47,56,57,-1,60,61,62,-1,60,62,63,-1,63,62,64,-1,63,64,65,-1,65,64,66,-1,65,66,67,-1,67,66,68,-1,67,68,69,-1,69,68,51,-1,69,51,50,-1,70,71,72,-1,72,73,70,-1,70,73,74,-1,70,74,75,-1,75,74,76,-1,74,77,76,-1,76,77,78,-1,76,78,79,-1,79,78,80,-1,79,80,81,-1,81,80,82,-1,81,82,83,-1,83,82,59,-1,83,59,58,-1,44,45,60,-1,60,45,61,-1,72,71,42,-1,42,71,43,-1,
        ]
    }
}
Shape{
    appearance Appearance {
        material  Material 	{
            diffuseColor 0.25098039215686274 0.25098039215686274 0.25098039215686274
            specularColor 0.17647058823529413 0.17647058823529413 0.17647058823529413
            ambientIntensity 0.2
            transparency 0
            shininess 0.5
        }
    }
    geometry IndexedFaceSet {
        ccw TRUE
        solid FALSE
        coord DEF co Coordinate {
            point [
                1.9409 1.1417 1.2205, 1.7441 1.1417 1.2205, 1.9409 0.9449 1.2205, 1.9409 -1.1417 1.2205, 1.9409 -0.9449 1.2205, 1.7441 -1.1417 1.2205, -1.7441 1.1417 1.2205, -1.9409 1.1417 1.2205, -1.9409 0.9449 1.2205, -1.9409 0.9449 1.2205
            ]
        }
        coordIndex [
            0,1,2,-1,3,4,5,-1,6,7,8,-1,
        ]
    }
}
Shape{
    appearance Appearance {
        material  Material 	{
            diffuseColor 0.10980392156862745 0.10980392156862745 0.10980392156862745
            specularColor 0.0784313725490196 0.0784313725490196 0.0784313725490196
            ambientIntensity 0.2
            transparency 0
            shininess 0.5
        }
    }
    geometry IndexedFaceSet {
        ccw TRUE
        solid FALSE
        coord DEF co Coordinate {
            point [
                1.9803 1.1811 0.5118, 1.9803 1.1811 0.7087, 1.9803 -1.1811 0.5118, 1.9803 -1.1811 0.7087, 1.8031 1.1811 0.6299, 1.1969 1.1811 0.6299, -1.1969 1.1811 0.6299, -1.9803 1.1811 0.7087, -1.8031 1.1811 0.6299, -1.9803 1.1811 0.5118, -0.8031 1.1811 0.6299, -0.8031 1.1811 0.5315, -1.1969 1.1811 0.5315, 1.8031 1.1811 0.5315, 1.1969 1.1811 0.5315, 0.1969 1.1811 0.6299, 0.8031 1.1811 0.6299, 0.8031 1.1811 0.5315, -1.8031 1.1811 0.5315, -0.1969 1.1811 0.5315, 0.1969 1.1811 0.5315, -0.1969 1.1811 0.6299, -1.9803 -1.1811 0.5118, -1.9803 -1.1811 0.7087, -1.1969 -1.1811 0.5315, -0.8031 -1.1811 0.5315, -1.1969 -1.1811 0.6299, -0.8031 -1.1811 0.6299, -0.1969 -1.1811 0.6299, 0.1969 -1.1811 0.6299, 0.1969 -1.1811 0.5315, 1.1969 -1.1811 0.6299, 0.8031 -1.1811 0.6299, 1.1969 -1.1811 0.5315, 0.8031 -1.1811 0.5315, -0.1969 -1.1811 0.5315, -1.8031 -1.1811 0.5315, -1.8031 -1.1811 0.6299, 1.8031 -1.1811 0.6299, 1.8031 -1.1811 0.5315, 1.8031 -1.1811 0.5315
            ]
        }
        coordIndex [
            0,1,2,-1,2,1,3,-1,1,4,5,-1,1,6,7,-1,7,6,8,-1,7,8,9,-1,10,11,12,-1,4,1,13,-1,13,1,0,-1,13,0,14,-1,15,1,16,-1,16,1,5,-1,16,5,17,-1,8,18,9,-1,9,18,12,-1,9,12,0,-1,0,12,11,-1,0,11,19,-1,5,14,17,-1,17,14,0,-1,17,0,20,-1,20,0,19,-1,20,19,15,-1,15,19,21,-1,15,21,1,-1,1,21,10,-1,1,10,6,-1,6,10,12,-1,22,23,9,-1,9,23,7,-1,24,25,26,-1,26,25,27,-1,26,27,23,-1,23,27,28,-1,23,28,29,-1,29,28,30,-1,31,32,33,-1,33,32,34,-1,33,34,2,-1,2,34,30,-1,2,30,35,-1,35,30,28,-1,35,25,2,-1,2,25,24,-1,2,24,22,-1,22,24,36,-1,22,36,23,-1,23,36,37,-1,23,37,26,-1,29,32,23,-1,23,32,31,-1,23,31,3,-1,3,31,38,-1,3,38,2,-1,2,38,39,-1,2,39,33,-1,
        ]
    }
}
Shape{
    appearance Appearance {
        material  Material 	{
            diffuseColor 0.25098039215686274 0.25098039215686274 0.25098039215686274
            specularColor 0.17647058823529413 0.17647058823529413 0.17647058823529413
            ambientIntensity 0.2
            transparency 0
            shininess 0.5
        }
    }
    geometry IndexedFaceSet {
        ccw TRUE
        solid FALSE
        coord DEF co Coordinate {
            point [
                -1.9409 -1.1417 1.2205, -1.7441 -1.1417 1.2205, -1.9409 -0.9449 1.2205, -1.7441 -1.1417 1.3386, 1.7441 -1.1417 1.3386, 1.7441 -1.1417 1.2205, -1.9409 -0.9449 1.3386, -1.9409 0.9449 1.2205, -1.9409 0.9449 1.3386, 1.7441 1.1417 1.3386, 1.7441 1.1417 1.2205, -1.7441 1.1417 1.3386, -1.7441 1.1417 1.2205, 1.9409 0.9449 1.2205, 1.9409 0.9449 1.3386, 1.9409 -0.9449 1.2205, 1.9409 -0.9449 1.3386, -1.9803 -1.1811 0.7087, 1.9803 -1.1811 0.7087, 1.9409 -1.1417 1.2205, 1.9803 1.1811 0.7087, 1.9409 1.1417 1.2205, -1.9409 1.1417 1.2205, -1.9803 1.1811 0.7087, 1.9409 -1.1417 0.2362, 1.9803 -1.1811 0.5118, -1.9409 -1.1417 0.2362, -1.9803 -1.1811 0.5118, 1.9409 1.1417 0.2362, 1.9803 1.1811 0.5118, -1.9803 1.1811 0.5118, -1.9409 1.1417 0.2362, 0.6575 0.5512 1.1811, 0.6575 -0.4331 1.1811, 0.6575 0.7874 1.3386, 0.6575 -0.6693 1.3386, 0.3425 -0.4331 1.1811, 0.3425 0.5512 1.1811, 0.3425 -0.6693 1.3386, 0.3425 0.7874 1.3386, 0.6378 0.4528 1.1811, 0.3622 0.4528 1.1811, 0.3622 -0.3346 1.1811, 0.6378 -0.3346 1.1811, 0.6378 -0.3346 1.1811
            ]
        }
        coordIndex [
            0,1,2,-1,3,1,4,-1,4,1,5,-1,2,6,7,-1,7,6,8,-1,9,10,11,-1,11,10,12,-1,13,14,15,-1,15,14,16,-1,2,1,6,-1,6,1,3,-1,13,10,14,-1,14,10,9,-1,12,7,11,-1,11,7,8,-1,5,15,4,-1,4,15,16,-1,0,17,1,-1,1,17,18,-1,1,18,5,-1,5,18,19,-1,19,18,15,-1,15,18,20,-1,15,20,13,-1,13,20,21,-1,7,22,23,-1,7,23,2,-1,2,23,17,-1,2,17,0,-1,21,20,10,-1,10,20,23,-1,10,23,12,-1,12,23,22,-1,24,25,26,-1,26,25,27,-1,28,29,24,-1,24,29,25,-1,30,31,27,-1,27,31,26,-1,31,30,28,-1,28,30,29,-1,32,33,34,-1,34,33,35,-1,36,37,38,-1,38,37,39,-1,40,32,41,-1,41,32,37,-1,41,37,42,-1,42,37,36,-1,42,36,43,-1,43,36,33,-1,43,33,40,-1,40,33,32,-1,35,33,38,-1,38,33,36,-1,39,37,34,-1,34,37,32,-1,
        ]
    }
}
Shape{
    appearance Appearance {
        material  Material 	{
            diffuseColor 1.0 1.0 1.0
            specularColor 0.8784313725490196 0.8784313725490196 0.8784313725490196
            ambientIntensity 0.2
            transparency 0
            shininess 0.5
        }
    }
    geometry IndexedFaceSet {
        ccw TRUE
        solid FALSE
        coord DEF co Coordinate {
            point [
                0.6378 0.4528 1.1417, 0.6378 -0.3346 1.1417, 0.6378 0.4528 1.1811, 0.6378 -0.3346 1.1811, 0.3622 -0.3346 1.1417, 0.3622 -0.3346 1.1811, 0.3622 0.4528 1.1417, 0.3622 0.4528 1.1811, 0.3622 0.4528 1.1811
            ]
        }
        coordIndex [
            0,1,2,-1,2,1,3,-1,1,4,3,-1,3,4,5,-1,4,6,5,-1,5,6,7,-1,6,0,7,-1,7,0,2,-1,
        ]
    }
}
Shape{
    appearance Appearance {
        material  Material 	{
            diffuseColor 1.0 1.0 1.0
            specularColor 0.30196078431372547 0.30196078431372547 0.30196078431372547
            ambientIntensity 0.2
            transparency 0
            shininess 0.5
        }
    }
    geometry IndexedFaceSet {
        ccw TRUE
        solid FALSE
        coord DEF co Coordinate {
            point [
                0.3622 0.4528 1.1417, 0.3622 -0.3346 1.1417, 0.6378 0.4528 1.1417, 0.6378 -0.3346 1.1417, 0.6378 -0.3346 1.1417
            ]
        }
        coordIndex [
            0,1,2,-1,2,1,3,-1,
        ]
    }
}
Shape{
    appearance Appearance {
        material  Material 	{
            diffuseColor 0.9686274509803922 0.8784313725490196 0.6
            specularColor 0.6784313725490196 0.615686274509804 0.4196078431372549
            ambientIntensity 0.2
            transparency 0
            shininess 0.5
        }
    }
    geometry IndexedFaceSet {
        ccw TRUE
        solid FALSE
        coord DEF co Coordinate {
            point [
                0.1969 -1.2702 0.5315, 0.1969 -1.2702 0.6299, 0.1969 -1.1811 0.5315, 0.1969 -1.1811 0.6299, 0.8031 -1.2702 0.5315, 0.8031 -1.1811 0.5315, 0.8031 -1.2702 0.6299, 0.8031 -1.1811 0.6299, 0.1969 -1.2973 0.5137, 0.1969 -1.3877 0.5526, 0.1969 -1.2939 0.5196, 0.1969 -1.3729 0.5784, 0.1969 -1.2892 0.5246, 0.1969 -1.3525 0.6, 0.1969 -1.2835 0.5284, 0.1969 -1.3276 0.6163, 0.1969 -1.277 0.5307, 0.1969 -1.2997 0.6265, 0.8031 -1.277 0.5307, 0.8031 -1.2835 0.5284, 0.8031 -1.2892 0.5246, 0.8031 -1.2939 0.5196, 0.8031 -1.2973 0.5137, 0.8031 -1.2997 0.6265, 0.8031 -1.3276 0.6163, 0.8031 -1.3525 0.6, 0.8031 -1.3729 0.5784, 0.8031 -1.3877 0.5526, 0.4016 -1.603 0.0984, 0.4016 -1.4764 0.0984, 0.4016 -1.4855 0.0773, 0.4016 -1.5003 0.0516, 0.4016 -1.5207 0.0299, 0.4016 -1.5455 0.0136, 0.4016 -1.9291 0.0, 0.4016 -1.9291 0.0984, 0.4016 -1.603 0.0, 0.4016 -1.5735 0.0034, 0.4008 -1.5962 0.0992, 0.4014 -1.5995 0.0986, 0.3999 -1.5929 0.1002, 0.3986 -1.5897 0.1016, 0.3951 -1.584 0.1053, 0.1969 -1.489 0.3178, 0.1969 -1.3818 0.3178, 0.3849 -1.5759 0.1163, 0.3905 -1.5793 0.1103, 0.5984 -1.603 0.0984, 0.5984 -1.9291 0.0984, 0.5984 -1.9291 0.0, 0.5984 -1.4855 0.0773, 0.5984 -1.4764 0.0984, 0.5984 -1.603 0.0, 0.5984 -1.5735 0.0034, 0.5984 -1.5455 0.0136, 0.5984 -1.5207 0.0299, 0.5984 -1.5003 0.0516, 0.5986 -1.5995 0.0986, 0.6095 -1.5793 0.1103, 0.6049 -1.584 0.1053, 0.6014 -1.5897 0.1016, 0.8031 -1.3818 0.3178, 0.8031 -1.489 0.3178, 0.6151 -1.5759 0.1163, 0.6001 -1.5929 0.1002, 0.5992 -1.5962 0.0992, 0.8031 1.2702 0.5315, 0.8031 1.2702 0.6299, 0.8031 1.1811 0.5315, 0.8031 1.1811 0.6299, 0.1969 1.2702 0.5315, 0.1969 1.1811 0.5315, 0.1969 1.2702 0.6299, 0.1969 1.1811 0.6299, 0.5984 1.9291 0.0984, 0.5984 1.9291 0.0, 0.4016 1.9291 0.0984, 0.4016 1.9291 0.0, 0.8031 1.2973 0.5137, 0.8031 1.3877 0.5526, 0.8031 1.2939 0.5196, 0.8031 1.3729 0.5784, 0.8031 1.2892 0.5246, 0.8031 1.3525 0.6, 0.8031 1.2835 0.5284, 0.8031 1.3276 0.6163, 0.8031 1.277 0.5307, 0.8031 1.2997 0.6265, 0.1969 1.277 0.5307, 0.1969 1.2835 0.5284, 0.1969 1.2892 0.5246, 0.1969 1.2939 0.5196, 0.1969 1.2973 0.5137, 0.1969 1.2997 0.6265, 0.1969 1.3276 0.6163, 0.1969 1.3525 0.6, 0.1969 1.3729 0.5784, 0.1969 1.3877 0.5526, 0.8031 1.489 0.3178, 0.8031 1.3818 0.3178, 0.4016 1.4855 0.0773, 0.5984 1.4855 0.0773, 0.4016 1.4764 0.0984, 0.5984 1.4764 0.0984, 0.1969 1.3818 0.3178, 0.1969 1.489 0.3178, 0.6151 1.5759 0.1163, 0.3849 1.5759 0.1163, 0.4016 1.603 0.0, 0.5984 1.603 0.0, 0.5984 1.5735 0.0034, 0.4016 1.5735 0.0034, 0.5984 1.5455 0.0136, 0.4016 1.5455 0.0136, 0.5984 1.5207 0.0299, 0.4016 1.5207 0.0299, 0.5984 1.5003 0.0516, 0.4016 1.5003 0.0516, 0.4008 1.5962 0.0992, 0.3999 1.5929 0.1002, 0.6001 1.5929 0.1002, 0.3986 1.5897 0.1016, 0.6014 1.5897 0.1016, 0.3951 1.584 0.1053, 0.6049 1.584 0.1053, 0.3905 1.5793 0.1103, 0.6095 1.5793 0.1103, 0.5986 1.5995 0.0986, 0.5984 1.603 0.0984, 0.4016 1.603 0.0984, 0.5992 1.5962 0.0992, 0.4014 1.5995 0.0986, 0.4014 1.5995 0.0986
            ]
        }
        coordIndex [
            0,1,2,-1,2,1,3,-1,4,0,5,-1,5,0,2,-1,6,4,7,-1,7,4,5,-1,1,6,3,-1,3,6,7,-1,8,9,10,-1,10,9,11,-1,10,11,12,-1,12,11,13,-1,12,13,14,-1,14,13,15,-1,14,15,16,-1,16,15,17,-1,16,17,0,-1,0,17,1,-1,0,4,16,-1,16,4,18,-1,16,18,14,-1,14,18,19,-1,14,19,12,-1,12,19,20,-1,12,20,10,-1,10,20,21,-1,10,21,8,-1,8,21,22,-1,4,6,18,-1,18,6,23,-1,18,23,19,-1,19,23,24,-1,19,24,20,-1,20,24,25,-1,20,25,21,-1,21,25,26,-1,21,26,22,-1,22,26,27,-1,9,27,26,-1,9,26,11,-1,11,26,25,-1,11,25,13,-1,13,25,24,-1,13,24,15,-1,15,24,23,-1,15,23,17,-1,17,23,6,-1,17,6,1,-1,28,29,30,-1,30,31,28,-1,28,31,32,-1,28,32,33,-1,34,35,36,-1,36,35,28,-1,36,28,37,-1,37,28,33,-1,38,29,39,-1,39,29,28,-1,38,40,29,-1,29,40,41,-1,29,41,42,-1,43,44,45,-1,45,44,29,-1,45,29,46,-1,46,29,42,-1,47,48,49,-1,50,51,47,-1,49,52,47,-1,47,52,53,-1,47,53,54,-1,54,55,47,-1,47,55,56,-1,47,56,50,-1,57,47,51,-1,58,59,51,-1,51,59,60,-1,61,62,51,-1,51,62,63,-1,51,63,58,-1,60,64,51,-1,51,64,65,-1,51,65,57,-1,66,67,68,-1,68,67,69,-1,70,66,71,-1,71,66,68,-1,72,70,73,-1,73,70,71,-1,67,72,69,-1,69,72,73,-1,74,75,76,-1,76,75,77,-1,78,79,80,-1,80,79,81,-1,80,81,82,-1,82,81,83,-1,82,83,84,-1,84,83,85,-1,84,85,86,-1,86,85,87,-1,86,87,66,-1,66,87,67,-1,66,70,86,-1,86,70,88,-1,86,88,84,-1,84,88,89,-1,84,89,82,-1,82,89,90,-1,82,90,80,-1,80,90,91,-1,80,91,78,-1,78,91,92,-1,70,72,88,-1,88,72,93,-1,88,93,89,-1,89,93,94,-1,89,94,90,-1,90,94,95,-1,90,95,91,-1,91,95,96,-1,91,96,92,-1,92,96,97,-1,79,97,96,-1,79,96,81,-1,81,96,95,-1,81,95,83,-1,83,95,94,-1,83,94,85,-1,85,94,93,-1,85,93,87,-1,87,93,72,-1,87,72,67,-1,79,78,98,-1,98,78,99,-1,100,101,102,-1,102,101,103,-1,102,103,104,-1,104,103,92,-1,92,103,99,-1,92,99,78,-1,92,97,104,-1,104,97,105,-1,97,79,98,-1,106,107,98,-1,98,107,105,-1,98,105,97,-1,108,109,110,-1,108,110,111,-1,111,110,112,-1,111,112,113,-1,113,112,114,-1,113,114,115,-1,115,114,116,-1,115,116,117,-1,117,116,101,-1,117,101,100,-1,118,119,120,-1,120,119,121,-1,120,121,122,-1,122,121,123,-1,122,123,124,-1,124,123,125,-1,124,125,126,-1,126,125,107,-1,126,107,106,-1,127,128,129,-1,120,130,118,-1,118,130,127,-1,118,127,131,-1,131,127,129,-1,75,109,77,-1,77,109,108,-1,128,74,129,-1,129,74,76,-1,128,103,101,-1,101,116,128,-1,128,116,114,-1,128,114,112,-1,75,74,109,-1,109,74,128,-1,109,128,110,-1,110,128,112,-1,130,103,127,-1,127,103,128,-1,130,120,103,-1,103,120,122,-1,103,122,124,-1,98,99,106,-1,106,99,103,-1,106,103,126,-1,126,103,124,-1,131,129,102,-1,125,123,102,-1,102,123,121,-1,104,105,102,-1,102,105,107,-1,102,107,125,-1,121,119,102,-1,102,119,118,-1,102,118,131,-1,76,77,129,-1,129,77,108,-1,115,117,129,-1,129,117,100,-1,129,100,102,-1,108,111,129,-1,129,111,113,-1,129,113,115,-1,
        ]
    }
}
Shape{
    appearance Appearance {
        material  Material 	{
            diffuseColor 0.25098039215686274 0.25098039215686274 0.25098039215686274
            specularColor 0.17647058823529413 0.17647058823529413 0.17647058823529413
            ambientIntensity 0.2
            transparency 0
            shininess 0.5
        }
    }
    geometry IndexedFaceSet {
        ccw TRUE
        solid FALSE
        coord DEF co Coordinate {
            point [
                1.6575 0.5512 1.1811, 1.6575 -0.4331 1.1811, 1.6575 0.7874 1.3386, 1.6575 -0.6693 1.3386, 1.3425 -0.4331 1.1811, 1.3425 0.5512 1.1811, 1.3425 -0.6693 1.3386, 1.3425 0.7874 1.3386, 1.6378 -0.3346 1.1811, 1.3622 -0.3346 1.1811, 1.3622 0.4528 1.1811, 1.6378 0.4528 1.1811, 1.6378 0.4528 1.1811
            ]
        }
        coordIndex [
            0,1,2,-1,2,1,3,-1,4,5,6,-1,6,5,7,-1,8,1,0,-1,1,8,4,-1,4,8,9,-1,4,9,5,-1,5,9,10,-1,5,10,0,-1,0,10,11,-1,0,11,8,-1,3,1,6,-1,6,1,4,-1,7,5,2,-1,2,5,0,-1,
        ]
    }
}
Shape{
    appearance Appearance {
        material  Material 	{
            diffuseColor 1.0 1.0 1.0
            specularColor 0.30196078431372547 0.30196078431372547 0.30196078431372547
            ambientIntensity 0.2
            transparency 0
            shininess 0.5
        }
    }
    geometry IndexedFaceSet {
        ccw TRUE
        solid FALSE
        coord DEF co Coordinate {
            point [
                1.6378 0.4528 1.1417, 1.6378 -0.3346 1.1417, 1.6378 0.4528 1.1811, 1.6378 -0.3346 1.1811, 1.3622 -0.3346 1.1417, 1.3622 -0.3346 1.1811, 1.3622 0.4528 1.1417, 1.3622 0.4528 1.1811, 1.3622 0.4528 1.1811
            ]
        }
        coordIndex [
            0,1,2,-1,2,1,3,-1,1,4,3,-1,3,4,5,-1,4,6,5,-1,5,6,7,-1,6,0,7,-1,7,0,2,-1,6,4,0,-1,0,4,1,-1,
        ]
    }
}
Shape{
    appearance Appearance {
        material  Material 	{
            diffuseColor 0.9686274509803922 0.8784313725490196 0.6
            specularColor 0.6784313725490196 0.615686274509804 0.4196078431372549
            ambientIntensity 0.2
            transparency 0
            shininess 0.5
        }
    }
    geometry IndexedFaceSet {
        ccw TRUE
        solid FALSE
        coord DEF co Coordinate {
            point [
                1.1969 -1.2702 0.5315, 1.1969 -1.2702 0.6299, 1.1969 -1.1811 0.5315, 1.1969 -1.1811 0.6299, 1.8031 -1.2702 0.5315, 1.8031 -1.1811 0.5315, 1.8031 -1.2702 0.6299, 1.8031 -1.1811 0.6299, 1.1969 -1.2973 0.5137, 1.1969 -1.3877 0.5526, 1.1969 -1.2939 0.5196, 1.1969 -1.3729 0.5784, 1.1969 -1.2892 0.5246, 1.1969 -1.3525 0.6, 1.1969 -1.2835 0.5284, 1.1969 -1.3276 0.6163, 1.1969 -1.277 0.5307, 1.1969 -1.2997 0.6265, 1.8031 -1.277 0.5307, 1.8031 -1.2835 0.5284, 1.8031 -1.2892 0.5246, 1.8031 -1.2939 0.5196, 1.8031 -1.2973 0.5137, 1.8031 -1.2997 0.6265, 1.8031 -1.3276 0.6163, 1.8031 -1.3525 0.6, 1.8031 -1.3729 0.5784, 1.8031 -1.3877 0.5526, 1.8031 1.2702 0.5315, 1.8031 1.2702 0.6299, 1.8031 1.1811 0.5315, 1.8031 1.1811 0.6299, 1.1969 1.2702 0.5315, 1.1969 1.1811 0.5315, 1.1969 1.2702 0.6299, 1.1969 1.1811 0.6299, 1.5984 1.9291 0.0984, 1.5984 1.9291 0.0, 1.4016 1.9291 0.0984, 1.4016 1.9291 0.0, 1.8031 1.2973 0.5137, 1.8031 1.3877 0.5526, 1.8031 1.2939 0.5196, 1.8031 1.3729 0.5784, 1.8031 1.2892 0.5246, 1.8031 1.3525 0.6, 1.8031 1.2835 0.5284, 1.8031 1.3276 0.6163, 1.8031 1.277 0.5307, 1.8031 1.2997 0.6265, 1.1969 1.277 0.5307, 1.1969 1.2835 0.5284, 1.1969 1.2892 0.5246, 1.1969 1.2939 0.5196, 1.1969 1.2973 0.5137, 1.1969 1.2997 0.6265, 1.1969 1.3276 0.6163, 1.1969 1.3525 0.6, 1.1969 1.3729 0.5784, 1.1969 1.3877 0.5526, 1.8031 1.489 0.3178, 1.8031 1.3818 0.3178, 1.4016 1.4855 0.0773, 1.5984 1.4855 0.0773, 1.4016 1.4764 0.0984, 1.5984 1.4764 0.0984, 1.1969 1.3818 0.3178, 1.1969 1.489 0.3178, 1.6151 1.5759 0.1163, 1.3849 1.5759 0.1163, 1.4016 1.603 -0.0, 1.5984 1.603 -0.0, 1.5984 1.5735 0.0034, 1.4016 1.5735 0.0034, 1.5984 1.5455 0.0136, 1.4016 1.5455 0.0136, 1.5984 1.5207 0.0299, 1.4016 1.5207 0.0299, 1.5984 1.5003 0.0516, 1.4016 1.5003 0.0516, 1.6095 1.5793 0.1103, 1.3905 1.5793 0.1103, 1.6049 1.584 0.1053, 1.3951 1.584 0.1053, 1.6014 1.5897 0.1016, 1.3986 1.5897 0.1016, 1.3999 1.5929 0.1002, 1.6001 1.5929 0.1002, 1.4008 1.5962 0.0992, 1.5986 1.5995 0.0986, 1.5984 1.603 0.0984, 1.4016 1.603 0.0984, 1.5992 1.5962 0.0992, 1.4014 1.5995 0.0986, 1.4016 -1.603 0.0984, 1.4016 -1.4764 0.0984, 1.4016 -1.4855 0.0773, 1.4016 -1.5003 0.0516, 1.4016 -1.5207 0.0299, 1.4016 -1.5455 0.0136, 1.4016 -1.9291 0.0, 1.4016 -1.9291 0.0984, 1.4016 -1.603 0.0, 1.4016 -1.5735 0.0034, 1.4008 -1.5962 0.0992, 1.4014 -1.5995 0.0986, 1.3999 -1.5929 0.1002, 1.3986 -1.5897 0.1016, 1.3951 -1.584 0.1053, 1.1969 -1.489 0.3178, 1.1969 -1.3818 0.3178, 1.3849 -1.5759 0.1163, 1.3905 -1.5793 0.1103, 1.5984 -1.9291 0.0984, 1.5984 -1.9291 0.0, 1.5984 -1.603 0.0984, 1.5984 -1.603 0.0, 1.5984 -1.5735 0.0034, 1.5984 -1.5455 0.0136, 1.5984 -1.5207 0.0299, 1.5984 -1.5003 0.0516, 1.5984 -1.4855 0.0773, 1.5984 -1.4764 0.0984, 1.5986 -1.5995 0.0986, 1.6095 -1.5793 0.1103, 1.6049 -1.584 0.1053, 1.6014 -1.5897 0.1016, 1.8031 -1.3818 0.3178, 1.8031 -1.489 0.3178, 1.6151 -1.5759 0.1163, 1.6001 -1.5929 0.1002, 1.5992 -1.5962 0.0992, 1.5992 -1.5962 0.0992
            ]
        }
        coordIndex [
            0,1,2,-1,2,1,3,-1,4,0,5,-1,5,0,2,-1,6,4,7,-1,7,4,5,-1,1,6,3,-1,3,6,7,-1,8,9,10,-1,10,9,11,-1,10,11,12,-1,12,11,13,-1,12,13,14,-1,14,13,15,-1,14,15,16,-1,16,15,17,-1,16,17,0,-1,0,17,1,-1,0,4,16,-1,16,4,18,-1,16,18,14,-1,14,18,19,-1,14,19,12,-1,12,19,20,-1,12,20,10,-1,10,20,21,-1,10,21,8,-1,8,21,22,-1,4,6,18,-1,18,6,23,-1,18,23,19,-1,19,23,24,-1,19,24,20,-1,20,24,25,-1,20,25,21,-1,21,25,26,-1,21,26,22,-1,22,26,27,-1,9,27,26,-1,9,26,11,-1,11,26,25,-1,11,25,13,-1,13,25,24,-1,13,24,15,-1,15,24,23,-1,15,23,17,-1,17,23,6,-1,17,6,1,-1,28,29,30,-1,30,29,31,-1,32,28,33,-1,33,28,30,-1,34,32,35,-1,35,32,33,-1,29,34,31,-1,31,34,35,-1,36,37,38,-1,38,37,39,-1,40,41,42,-1,42,41,43,-1,42,43,44,-1,44,43,45,-1,44,45,46,-1,46,45,47,-1,46,47,48,-1,48,47,49,-1,48,49,28,-1,28,49,29,-1,28,32,48,-1,48,32,50,-1,48,50,46,-1,46,50,51,-1,46,51,44,-1,44,51,52,-1,44,52,42,-1,42,52,53,-1,42,53,40,-1,40,53,54,-1,32,34,50,-1,50,34,55,-1,50,55,51,-1,51,55,56,-1,51,56,52,-1,52,56,57,-1,52,57,53,-1,53,57,58,-1,53,58,54,-1,54,58,59,-1,41,59,58,-1,41,58,43,-1,43,58,57,-1,43,57,45,-1,45,57,56,-1,45,56,47,-1,47,56,55,-1,47,55,49,-1,49,55,34,-1,49,34,29,-1,41,40,60,-1,60,40,61,-1,62,63,64,-1,64,63,65,-1,64,65,66,-1,66,65,54,-1,54,65,61,-1,54,61,40,-1,54,59,66,-1,66,59,67,-1,59,41,60,-1,68,69,60,-1,60,69,67,-1,60,67,59,-1,70,71,72,-1,70,72,73,-1,73,72,74,-1,73,74,75,-1,75,74,76,-1,75,76,77,-1,77,76,78,-1,77,78,79,-1,79,78,63,-1,79,63,62,-1,69,68,80,-1,69,80,81,-1,81,80,82,-1,81,82,83,-1,83,82,84,-1,83,84,85,-1,85,84,86,-1,86,84,87,-1,86,87,88,-1,89,90,91,-1,87,92,88,-1,88,92,89,-1,88,89,93,-1,93,89,91,-1,37,71,39,-1,39,71,70,-1,90,36,91,-1,91,36,38,-1,90,65,63,-1,63,78,90,-1,90,78,76,-1,90,76,74,-1,37,36,71,-1,71,36,90,-1,71,90,72,-1,72,90,74,-1,92,65,89,-1,89,65,90,-1,92,87,65,-1,65,87,84,-1,65,84,82,-1,60,61,68,-1,68,61,65,-1,68,65,80,-1,80,65,82,-1,93,91,64,-1,81,83,64,-1,64,83,85,-1,66,67,64,-1,64,67,69,-1,64,69,81,-1,85,86,64,-1,64,86,88,-1,64,88,93,-1,38,39,91,-1,91,39,70,-1,77,79,91,-1,91,79,62,-1,91,62,64,-1,70,73,91,-1,91,73,75,-1,91,75,77,-1,94,95,96,-1,96,97,94,-1,94,97,98,-1,94,98,99,-1,100,101,102,-1,102,101,94,-1,102,94,103,-1,103,94,99,-1,104,95,105,-1,105,95,94,-1,104,106,95,-1,95,106,107,-1,95,107,108,-1,109,110,111,-1,111,110,95,-1,111,95,112,-1,112,95,108,-1,113,114,115,-1,115,114,116,-1,116,117,115,-1,115,117,118,-1,115,118,119,-1,119,120,115,-1,115,120,121,-1,115,121,122,-1,123,115,122,-1,124,125,122,-1,122,125,126,-1,127,128,122,-1,122,128,129,-1,122,129,124,-1,126,130,122,-1,122,130,131,-1,122,131,123,-1,
        ]
    }
}
Shape{
    appearance Appearance {
        material  Material 	{
            diffuseColor 1.0 1.0 1.0
            specularColor 0.8784313725490196 0.8784313725490196 0.8784313725490196
            ambientIntensity 0.2
            transparency 0
            shininess 0.5
        }
    }
    geometry IndexedFaceSet {
        ccw TRUE
        solid FALSE
        coord DEF co Coordinate {
            point [
                -1.3622 0.4528 1.1417, -1.3622 -0.3346 1.1417, -1.3622 0.4528 1.1811, -1.3622 -0.3346 1.1811, -1.6378 -0.3346 1.1417, -1.6378 0.4528 1.1417, -1.6378 -0.3346 1.1811, -1.6378 0.4528 1.1811, -1.6378 0.4528 1.1811
            ]
        }
        coordIndex [
            0,1,2,-1,2,1,3,-1,4,5,6,-1,6,5,7,-1,5,0,7,-1,7,0,2,-1,
        ]
    }
}
Shape{
    appearance Appearance {
        material  Material 	{
            diffuseColor 0.25098039215686274 0.25098039215686274 0.25098039215686274
            specularColor 0.17647058823529413 0.17647058823529413 0.17647058823529413
            ambientIntensity 0.2
            transparency 0
            shininess 0.5
        }
    }
    geometry IndexedFaceSet {
        ccw TRUE
        solid FALSE
        coord DEF co Coordinate {
            point [
                -1.3425 0.5512 1.1811, -1.3425 -0.4331 1.1811, -1.3425 0.7874 1.3386, -1.3425 -0.6693 1.3386, -1.6575 -0.4331 1.1811, -1.6575 0.5512 1.1811, -1.6575 -0.6693 1.3386, -1.6575 0.7874 1.3386, -1.3622 -0.3346 1.1811, -1.3819 -0.3346 1.1811, -1.6181 -0.3346 1.1811, -1.6378 -0.3346 1.1811, -1.6378 0.4528 1.1811, -1.3622 0.4528 1.1811, -1.3622 0.4528 1.1811
            ]
        }
        coordIndex [
            0,1,2,-1,2,1,3,-1,4,5,6,-1,6,5,7,-1,3,1,6,-1,6,1,4,-1,8,9,1,-1,1,9,10,-1,1,10,4,-1,4,10,11,-1,4,11,12,-1,8,1,13,-1,13,1,0,-1,13,0,12,-1,12,0,5,-1,12,5,4,-1,7,5,2,-1,2,5,0,-1,
        ]
    }
}
Shape{
    appearance Appearance {
        material  Material 	{
            diffuseColor 1.0 1.0 1.0
            specularColor 0.8784313725490196 0.8784313725490196 0.8784313725490196
            ambientIntensity 0.2
            transparency 0
            shininess 0.5
        }
    }
    geometry IndexedFaceSet {
        ccw TRUE
        solid FALSE
        coord DEF co Coordinate {
            point [
                -0.3622 0.4528 1.1417, -0.3622 -0.3346 1.1417, -0.3622 0.4528 1.1811, -0.3622 -0.3346 1.1811, -0.6378 -0.3346 1.1417, -0.6378 0.4528 1.1417, -0.6378 -0.3346 1.1811, -0.6378 0.4528 1.1811, -0.6378 0.4528 1.1811
            ]
        }
        coordIndex [
            0,1,2,-1,2,1,3,-1,4,5,6,-1,6,5,7,-1,5,0,7,-1,7,0,2,-1,
        ]
    }
}
Shape{
    appearance Appearance {
        material  Material 	{
            diffuseColor 0.25098039215686274 0.25098039215686274 0.25098039215686274
            specularColor 0.17647058823529413 0.17647058823529413 0.17647058823529413
            ambientIntensity 0.2
            transparency 0
            shininess 0.5
        }
    }
    geometry IndexedFaceSet {
        ccw TRUE
        solid FALSE
        coord DEF co Coordinate {
            point [
                -0.3425 0.5512 1.1811, -0.3425 -0.4331 1.1811, -0.3425 0.7874 1.3386, -0.3425 -0.6693 1.3386, -0.6575 -0.4331 1.1811, -0.6575 0.5512 1.1811, -0.6575 -0.6693 1.3386, -0.6575 0.7874 1.3386, -0.3622 -0.3346 1.1811, -0.3819 -0.3346 1.1811, -0.6181 -0.3346 1.1811, -0.6378 -0.3346 1.1811, -0.6378 0.4528 1.1811, -0.3622 0.4528 1.1811, -0.3622 0.4528 1.1811
            ]
        }
        coordIndex [
            0,1,2,-1,2,1,3,-1,4,5,6,-1,6,5,7,-1,3,1,6,-1,6,1,4,-1,8,9,1,-1,1,9,10,-1,1,10,4,-1,4,10,11,-1,4,11,5,-1,5,11,12,-1,5,12,0,-1,0,12,13,-1,0,13,1,-1,1,13,8,-1,7,5,2,-1,2,5,0,-1,
        ]
    }
}
Shape{
    appearance Appearance {
        material  Material 	{
            diffuseColor 1.0 1.0 1.0
            specularColor 0.30196078431372547 0.30196078431372547 0.30196078431372547
            ambientIntensity 0.2
            transparency 0
            shininess 0.5
        }
    }
    geometry IndexedFaceSet {
        ccw TRUE
        solid FALSE
        coord DEF co Coordinate {
            point [
                -0.3819 -0.3346 1.1417, -0.3819 0.0591 1.1417, -0.3819 -0.3346 1.1811, -0.3819 0.0591 1.4961, -0.3819 -0.3346 1.4961, -0.6181 0.0591 1.4961, -0.6181 0.0591 1.1417, -0.6181 -0.3346 1.4961, -0.6181 -0.3346 1.1811, -0.6181 -0.3346 1.1417, -1.3819 -0.3346 1.1417, -1.3819 0.0591 1.1417, -1.3819 -0.3346 1.1811, -1.3819 0.0591 1.4961, -1.3819 -0.3346 1.4961, -1.6181 0.0591 1.4961, -1.6181 0.0591 1.1417, -1.6181 -0.3346 1.4961, -1.6181 -0.3346 1.1811, -1.6181 -0.3346 1.1417, -1.6181 -0.3346 1.1417
            ]
        }
        coordIndex [
            0,1,2,-1,2,1,3,-1,2,3,4,-1,5,3,6,-1,6,3,1,-1,7,5,8,-1,8,5,6,-1,8,6,9,-1,4,7,2,-1,2,7,8,-1,5,7,3,-1,3,7,4,-1,10,11,12,-1,12,11,13,-1,12,13,14,-1,15,13,16,-1,16,13,11,-1,17,15,18,-1,18,15,16,-1,18,16,19,-1,14,17,12,-1,12,17,18,-1,15,17,13,-1,13,17,14,-1,
        ]
    }
}
Shape{
    appearance Appearance {
        material  Material 	{
            diffuseColor 0.9686274509803922 0.8784313725490196 0.6
            specularColor 0.6784313725490196 0.615686274509804 0.4196078431372549
            ambientIntensity 0.2
            transparency 0
            shininess 0.5
        }
    }
    geometry IndexedFaceSet {
        ccw TRUE
        solid FALSE
        coord DEF co Coordinate {
            point [
                -0.4016 -1.9291 0.0, -0.5984 -1.9291 0.0, -0.4016 -1.603 0.0, -0.5984 -1.603 0.0, -0.5984 -1.5735 0.0034, -0.4016 -1.5735 0.0034, -0.5984 -1.5455 0.0136, -0.4016 -1.5455 0.0136, -0.5984 -1.5207 0.0299, -0.4016 -1.5207 0.0299, -0.5984 -1.5003 0.0516, -0.4016 -1.5003 0.0516, -0.5984 -1.4855 0.0773, -0.4016 -1.4855 0.0773, -0.8031 -1.2702 0.5315, -0.8031 -1.2702 0.6299, -0.8031 -1.1811 0.5315, -0.8031 -1.1811 0.6299, -0.1969 -1.2702 0.5315, -0.1969 -1.1811 0.5315, -0.1969 -1.2702 0.6299, -0.1969 -1.1811 0.6299, -0.8031 -1.2973 0.5137, -0.8031 -1.3877 0.5526, -0.8031 -1.2939 0.5196, -0.8031 -1.3729 0.5784, -0.8031 -1.2892 0.5246, -0.8031 -1.3525 0.6, -0.8031 -1.2835 0.5284, -0.8031 -1.3276 0.6163, -0.8031 -1.277 0.5307, -0.8031 -1.2997 0.6265, -0.1969 -1.277 0.5307, -0.1969 -1.2835 0.5284, -0.1969 -1.2892 0.5246, -0.1969 -1.2939 0.5196, -0.1969 -1.2973 0.5137, -0.1969 -1.2997 0.6265, -0.1969 -1.3276 0.6163, -0.1969 -1.3525 0.6, -0.1969 -1.3729 0.5784, -0.1969 -1.3877 0.5526, -0.4016 -1.603 0.0984, -0.5984 -1.603 0.0984, -0.4016 -1.9291 0.0984, -0.5984 -1.9291 0.0984, -0.5986 -1.5995 0.0986, -0.4014 -1.5995 0.0986, -0.4008 -1.5962 0.0992, -0.5992 -1.5962 0.0992, -0.6001 -1.5929 0.1002, -0.3999 -1.5929 0.1002, -0.3986 -1.5897 0.1016, -0.6014 -1.5897 0.1016, -0.3951 -1.584 0.1053, -0.6049 -1.584 0.1053, -0.3905 -1.5793 0.1103, -0.6095 -1.5793 0.1103, -0.3849 -1.5759 0.1163, -0.6151 -1.5759 0.1163, -0.8031 -1.489 0.3178, -0.1969 -1.489 0.3178, -0.1969 -1.3818 0.3178, -0.4016 -1.4764 0.0984, -0.5984 -1.4764 0.0984, -0.8031 -1.3818 0.3178, -1.4016 -1.9291 0.0, -1.5984 -1.9291 0.0, -1.4016 -1.603 0.0, -1.5984 -1.603 0.0, -1.5984 -1.5735 0.0034, -1.4016 -1.5735 0.0034, -1.5984 -1.5455 0.0136, -1.4016 -1.5455 0.0136, -1.5984 -1.5207 0.0299, -1.4016 -1.5207 0.0299, -1.5984 -1.5003 0.0516, -1.4016 -1.5003 0.0516, -1.5984 -1.4855 0.0773, -1.4016 -1.4855 0.0773, -1.8031 -1.2702 0.5315, -1.8031 -1.2702 0.6299, -1.8031 -1.1811 0.5315, -1.8031 -1.1811 0.6299, -1.1969 -1.2702 0.5315, -1.1969 -1.1811 0.5315, -1.1969 -1.2702 0.6299, -1.1969 -1.1811 0.6299, -1.8031 -1.2973 0.5137, -1.8031 -1.3877 0.5526, -1.8031 -1.2939 0.5196, -1.8031 -1.3729 0.5784, -1.8031 -1.2892 0.5246, -1.8031 -1.3525 0.6, -1.8031 -1.2835 0.5284, -1.8031 -1.3276 0.6163, -1.8031 -1.277 0.5307, -1.8031 -1.2997 0.6265, -1.1969 -1.277 0.5307, -1.1969 -1.2835 0.5284, -1.1969 -1.2892 0.5246, -1.1969 -1.2939 0.5196, -1.1969 -1.2973 0.5137, -1.1969 -1.2997 0.6265, -1.1969 -1.3276 0.6163, -1.1969 -1.3525 0.6, -1.1969 -1.3729 0.5784, -1.1969 -1.3877 0.5526, -1.4016 -1.603 0.0984, -1.5984 -1.603 0.0984, -1.4016 -1.9291 0.0984, -1.5984 -1.9291 0.0984, -1.4008 -1.5962 0.0992, -1.5992 -1.5962 0.0992, -1.5986 -1.5995 0.0986, -1.4014 -1.5995 0.0986, -1.6001 -1.5929 0.1002, -1.3999 -1.5929 0.1002, -1.6014 -1.5897 0.1016, -1.3986 -1.5897 0.1016, -1.3951 -1.584 0.1053, -1.6049 -1.584 0.1053, -1.3905 -1.5793 0.1103, -1.6095 -1.5793 0.1103, -1.3849 -1.5759 0.1163, -1.6151 -1.5759 0.1163, -1.8031 -1.489 0.3178, -1.1969 -1.489 0.3178, -1.1969 -1.3818 0.3178, -1.4016 -1.4764 0.0984, -1.5984 -1.4764 0.0984, -1.8031 -1.3818 0.3178, -0.4016 1.9291 0.0984, -0.4016 1.9291 0.0, -0.5984 1.9291 0.0984, -0.5984 1.9291 0.0, -0.1969 1.2702 0.5315, -0.1969 1.2702 0.6299, -0.1969 1.1811 0.5315, -0.1969 1.1811 0.6299, -0.8031 1.2702 0.5315, -0.8031 1.1811 0.5315, -0.8031 1.2702 0.6299, -0.8031 1.1811 0.6299, -0.1969 1.2973 0.5137, -0.1969 1.3877 0.5526, -0.1969 1.2939 0.5196, -0.1969 1.3729 0.5784, -0.1969 1.2892 0.5246, -0.1969 1.3525 0.6, -0.1969 1.2835 0.5284, -0.1969 1.3276 0.6163, -0.1969 1.277 0.5307, -0.1969 1.2997 0.6265, -0.8031 1.277 0.5307, -0.8031 1.2835 0.5284, -0.8031 1.2892 0.5246, -0.8031 1.2939 0.5196, -0.8031 1.2973 0.5137, -0.8031 1.2997 0.6265, -0.8031 1.3276 0.6163, -0.8031 1.3525 0.6, -0.8031 1.3729 0.5784, -0.8031 1.3877 0.5526, -0.1969 1.489 0.3178, -0.1969 1.3818 0.3178, -0.5992 1.5962 0.0992, -0.6001 1.5929 0.1002, -0.3999 1.5929 0.1002, -0.6014 1.5897 0.1016, -0.3986 1.5897 0.1016, -0.6049 1.584 0.1053, -0.3951 1.584 0.1053, -0.6095 1.5793 0.1103, -0.3905 1.5793 0.1103, -0.6151 1.5759 0.1163, -0.3849 1.5759 0.1163, -0.4014 1.5995 0.0986, -0.4016 1.603 0.0984, -0.5984 1.603 0.0984, -0.4008 1.5962 0.0992, -0.5986 1.5995 0.0986, -0.8031 1.489 0.3178, -0.8031 1.3818 0.3178, -0.5984 1.4855 0.0773, -0.4016 1.4855 0.0773, -0.5984 1.4764 0.0984, -0.4016 1.4764 0.0984, -0.5984 1.603 0.0, -0.4016 1.603 0.0, -0.4016 1.5735 0.0034, -0.5984 1.5735 0.0034, -0.4016 1.5455 0.0136, -0.5984 1.5455 0.0136, -0.4016 1.5207 0.0299, -0.5984 1.5207 0.0299, -0.4016 1.5003 0.0516, -0.5984 1.5003 0.0516, -1.4016 1.9291 0.0984, -1.4016 1.9291 0.0, -1.5984 1.9291 0.0984, -1.5984 1.9291 0.0, -1.1969 1.2702 0.5315, -1.1969 1.2702 0.6299, -1.1969 1.1811 0.5315, -1.1969 1.1811 0.6299, -1.8031 1.2702 0.5315, -1.8031 1.1811 0.5315, -1.8031 1.2702 0.6299, -1.8031 1.1811 0.6299, -1.1969 1.2973 0.5137, -1.1969 1.3877 0.5526, -1.1969 1.2939 0.5196, -1.1969 1.3729 0.5784, -1.1969 1.2892 0.5246, -1.1969 1.3525 0.6, -1.1969 1.2835 0.5284, -1.1969 1.3276 0.6163, -1.1969 1.277 0.5307, -1.1969 1.2997 0.6265, -1.8031 1.277 0.5307, -1.8031 1.2835 0.5284, -1.8031 1.2892 0.5246, -1.8031 1.2939 0.5196, -1.8031 1.2973 0.5137, -1.8031 1.2997 0.6265, -1.8031 1.3276 0.6163, -1.8031 1.3525 0.6, -1.8031 1.3729 0.5784, -1.8031 1.3877 0.5526, -1.1969 1.489 0.3178, -1.1969 1.3818 0.3178, -1.5992 1.5962 0.0992, -1.6001 1.5929 0.1002, -1.3999 1.5929 0.1002, -1.6014 1.5897 0.1016, -1.3986 1.5897 0.1016, -1.6049 1.584 0.1053, -1.3951 1.584 0.1053, -1.6095 1.5793 0.1103, -1.3905 1.5793 0.1103, -1.6151 1.5759 0.1163, -1.3849 1.5759 0.1163, -1.4014 1.5995 0.0986, -1.4016 1.603 0.0984, -1.5984 1.603 0.0984, -1.4008 1.5962 0.0992, -1.5986 1.5995 0.0986, -1.8031 1.489 0.3178, -1.8031 1.3818 0.3178, -1.5984 1.4764 0.0984, -1.5984 1.4855 0.0773, -1.4016 1.4855 0.0773, -1.4016 1.4764 0.0984, -1.5984 1.603 0.0, -1.4016 1.603 0.0, -1.4016 1.5735 0.0034, -1.5984 1.5735 0.0034, -1.4016 1.5455 0.0136, -1.5984 1.5455 0.0136, -1.4016 1.5207 0.0299, -1.5984 1.5207 0.0299, -1.4016 1.5003 0.0516, -1.5984 1.5003 0.0516, -1.5984 1.5003 0.0516
            ]
        }
        coordIndex [
            0,1,2,-1,2,1,3,-1,2,3,4,-1,2,4,5,-1,5,4,6,-1,5,6,7,-1,7,6,8,-1,7,8,9,-1,9,8,10,-1,9,10,11,-1,11,10,12,-1,11,12,13,-1,14,15,16,-1,16,15,17,-1,18,14,19,-1,19,14,16,-1,20,18,21,-1,21,18,19,-1,15,20,17,-1,17,20,21,-1,22,23,24,-1,24,23,25,-1,24,25,26,-1,26,25,27,-1,26,27,28,-1,28,27,29,-1,28,29,30,-1,30,29,31,-1,30,31,14,-1,14,31,15,-1,14,18,30,-1,30,18,32,-1,30,32,28,-1,28,32,33,-1,28,33,26,-1,26,33,34,-1,26,34,24,-1,24,34,35,-1,24,35,22,-1,22,35,36,-1,18,20,32,-1,32,20,37,-1,32,37,33,-1,33,37,38,-1,33,38,34,-1,34,38,39,-1,34,39,35,-1,35,39,40,-1,35,40,36,-1,36,40,41,-1,23,41,40,-1,23,40,25,-1,25,40,39,-1,25,39,27,-1,27,39,38,-1,27,38,29,-1,29,38,37,-1,29,37,31,-1,31,37,20,-1,31,20,15,-1,42,43,44,-1,44,43,45,-1,46,43,42,-1,42,47,46,-1,46,47,48,-1,46,48,49,-1,49,48,50,-1,48,51,50,-1,50,51,52,-1,50,52,53,-1,53,52,54,-1,53,54,55,-1,55,54,56,-1,55,56,57,-1,57,56,58,-1,57,58,59,-1,59,58,60,-1,60,58,61,-1,60,61,23,-1,23,61,41,-1,62,36,61,-1,61,36,41,-1,63,13,12,-1,12,64,63,-1,63,64,65,-1,63,65,62,-1,62,65,22,-1,62,22,36,-1,60,23,65,-1,65,23,22,-1,49,64,46,-1,46,64,43,-1,49,50,64,-1,64,50,53,-1,64,53,55,-1,60,65,59,-1,59,65,64,-1,59,64,57,-1,57,64,55,-1,43,64,12,-1,12,10,43,-1,43,10,8,-1,43,8,6,-1,1,45,3,-1,3,45,43,-1,3,43,4,-1,4,43,6,-1,44,45,0,-1,0,45,1,-1,44,0,42,-1,42,0,2,-1,9,11,42,-1,42,11,13,-1,42,13,63,-1,2,5,42,-1,42,5,7,-1,42,7,9,-1,47,42,63,-1,56,54,63,-1,63,54,52,-1,62,61,63,-1,63,61,58,-1,63,58,56,-1,52,51,63,-1,63,51,48,-1,63,48,47,-1,66,67,68,-1,68,67,69,-1,68,69,70,-1,68,70,71,-1,71,70,72,-1,71,72,73,-1,73,72,74,-1,73,74,75,-1,75,74,76,-1,75,76,77,-1,77,76,78,-1,77,78,79,-1,80,81,82,-1,82,81,83,-1,84,80,85,-1,85,80,82,-1,86,84,87,-1,87,84,85,-1,81,86,83,-1,83,86,87,-1,88,89,90,-1,90,89,91,-1,90,91,92,-1,92,91,93,-1,92,93,94,-1,94,93,95,-1,94,95,96,-1,96,95,97,-1,96,97,80,-1,80,97,81,-1,80,84,96,-1,96,84,98,-1,96,98,94,-1,94,98,99,-1,94,99,92,-1,92,99,100,-1,92,100,90,-1,90,100,101,-1,90,101,88,-1,88,101,102,-1,84,86,98,-1,98,86,103,-1,98,103,99,-1,99,103,104,-1,99,104,100,-1,100,104,105,-1,100,105,101,-1,101,105,106,-1,101,106,102,-1,102,106,107,-1,89,107,106,-1,89,106,91,-1,91,106,105,-1,91,105,93,-1,93,105,104,-1,93,104,95,-1,95,104,103,-1,95,103,97,-1,97,103,86,-1,97,86,81,-1,108,109,110,-1,110,109,111,-1,112,113,114,-1,109,108,114,-1,114,108,115,-1,114,115,112,-1,113,112,116,-1,116,112,117,-1,116,117,118,-1,117,119,118,-1,118,119,120,-1,118,120,121,-1,121,120,122,-1,121,122,123,-1,123,122,124,-1,123,124,125,-1,125,124,126,-1,126,124,127,-1,126,127,89,-1,89,127,107,-1,128,102,127,-1,127,102,107,-1,79,78,129,-1,129,78,130,-1,129,130,128,-1,128,130,102,-1,102,130,131,-1,102,131,88,-1,126,89,131,-1,131,89,88,-1,113,130,114,-1,114,130,109,-1,113,116,130,-1,130,116,118,-1,130,118,121,-1,126,131,125,-1,125,131,130,-1,125,130,123,-1,123,130,121,-1,67,111,69,-1,69,111,109,-1,69,109,70,-1,130,78,109,-1,109,78,76,-1,76,74,109,-1,109,74,72,-1,109,72,70,-1,110,111,66,-1,66,111,67,-1,110,66,108,-1,108,66,68,-1,68,71,108,-1,108,71,73,-1,108,73,75,-1,75,77,108,-1,108,77,79,-1,108,79,129,-1,115,108,129,-1,122,120,129,-1,129,120,119,-1,128,127,129,-1,129,127,124,-1,129,124,122,-1,119,117,129,-1,129,117,112,-1,129,112,115,-1,132,133,134,-1,134,133,135,-1,136,137,138,-1,138,137,139,-1,140,136,141,-1,141,136,138,-1,142,140,143,-1,143,140,141,-1,137,142,139,-1,139,142,143,-1,144,145,146,-1,146,145,147,-1,146,147,148,-1,148,147,149,-1,148,149,150,-1,150,149,151,-1,150,151,152,-1,152,151,153,-1,152,153,136,-1,136,153,137,-1,136,140,152,-1,152,140,154,-1,152,154,150,-1,150,154,155,-1,150,155,148,-1,148,155,156,-1,148,156,146,-1,146,156,157,-1,146,157,144,-1,144,157,158,-1,140,142,154,-1,154,142,159,-1,154,159,155,-1,155,159,160,-1,155,160,156,-1,156,160,161,-1,156,161,157,-1,157,161,162,-1,157,162,158,-1,158,162,163,-1,145,163,162,-1,145,162,147,-1,147,162,161,-1,147,161,149,-1,149,161,160,-1,149,160,151,-1,151,160,159,-1,151,159,153,-1,153,159,142,-1,153,142,137,-1,145,144,164,-1,164,144,165,-1,166,167,168,-1,168,167,169,-1,168,169,170,-1,170,169,171,-1,170,171,172,-1,172,171,173,-1,172,173,174,-1,174,173,175,-1,174,175,176,-1,177,178,179,-1,168,180,166,-1,166,180,177,-1,166,177,181,-1,181,177,179,-1,163,145,164,-1,176,175,164,-1,164,175,182,-1,164,182,163,-1,158,163,183,-1,183,163,182,-1,184,185,186,-1,186,185,187,-1,186,187,183,-1,183,187,158,-1,158,187,165,-1,158,165,144,-1,188,189,190,-1,188,190,191,-1,191,190,192,-1,191,192,193,-1,193,192,194,-1,193,194,195,-1,195,194,196,-1,195,196,197,-1,197,196,185,-1,197,185,184,-1,133,189,135,-1,135,189,188,-1,178,187,185,-1,185,196,178,-1,178,196,194,-1,178,194,192,-1,133,132,189,-1,189,132,178,-1,189,178,190,-1,190,178,192,-1,180,187,177,-1,177,187,178,-1,180,168,187,-1,187,168,170,-1,187,170,172,-1,164,165,176,-1,176,165,187,-1,176,187,174,-1,174,187,172,-1,178,132,179,-1,179,132,134,-1,181,179,186,-1,173,171,186,-1,186,171,169,-1,183,182,186,-1,186,182,175,-1,186,175,173,-1,169,167,186,-1,186,167,166,-1,186,166,181,-1,179,134,135,-1,184,186,179,-1,135,188,179,-1,179,188,191,-1,179,191,193,-1,193,195,179,-1,179,195,197,-1,179,197,184,-1,198,199,200,-1,200,199,201,-1,202,203,204,-1,204,203,205,-1,206,202,207,-1,207,202,204,-1,208,206,209,-1,209,206,207,-1,203,208,205,-1,205,208,209,-1,210,211,212,-1,212,211,213,-1,212,213,214,-1,214,213,215,-1,214,215,216,-1,216,215,217,-1,216,217,218,-1,218,217,219,-1,218,219,202,-1,202,219,203,-1,202,206,218,-1,218,206,220,-1,218,220,216,-1,216,220,221,-1,216,221,214,-1,214,221,222,-1,214,222,212,-1,212,222,223,-1,212,223,210,-1,210,223,224,-1,206,208,220,-1,220,208,225,-1,220,225,221,-1,221,225,226,-1,221,226,222,-1,222,226,227,-1,222,227,223,-1,223,227,228,-1,223,228,224,-1,224,228,229,-1,211,229,228,-1,211,228,213,-1,213,228,227,-1,213,227,215,-1,215,227,226,-1,215,226,217,-1,217,226,225,-1,217,225,219,-1,219,225,208,-1,219,208,203,-1,211,210,230,-1,230,210,231,-1,232,233,234,-1,234,233,235,-1,234,235,236,-1,236,235,237,-1,236,237,238,-1,238,237,239,-1,238,239,240,-1,240,239,241,-1,240,241,242,-1,243,244,245,-1,234,246,232,-1,232,246,243,-1,232,243,247,-1,247,243,245,-1,229,211,230,-1,242,241,230,-1,230,241,248,-1,230,248,229,-1,224,229,249,-1,249,229,248,-1,250,251,252,-1,252,253,250,-1,250,253,231,-1,250,231,249,-1,249,231,210,-1,249,210,224,-1,254,255,256,-1,254,256,257,-1,257,256,258,-1,257,258,259,-1,259,258,260,-1,259,260,261,-1,261,260,262,-1,261,262,263,-1,263,262,252,-1,263,252,251,-1,199,255,201,-1,201,255,254,-1,244,253,252,-1,252,262,244,-1,244,262,260,-1,244,260,258,-1,199,198,255,-1,255,198,244,-1,255,244,256,-1,256,244,258,-1,246,253,243,-1,243,253,244,-1,246,234,253,-1,253,234,236,-1,253,236,238,-1,230,231,242,-1,242,231,253,-1,242,253,240,-1,240,253,238,-1,244,198,245,-1,245,198,200,-1,247,245,250,-1,239,237,250,-1,250,237,235,-1,249,248,250,-1,250,248,241,-1,250,241,239,-1,235,233,250,-1,250,233,232,-1,250,232,247,-1,200,201,245,-1,245,201,254,-1,261,263,245,-1,245,263,251,-1,245,251,250,-1,254,257,245,-1,245,257,259,-1,245,259,261,-1,
        ]
    }
}
Shape{
    appearance Appearance {
        material  Material 	{
            diffuseColor 1.0 1.0 1.0
            specularColor 0.8784313725490196 0.8784313725490196 0.8784313725490196
            ambientIntensity 0.2
            transparency 0
            shininess 0.5
        }
    }
    geometry IndexedFaceSet {
        ccw TRUE
        solid FALSE
        coord DEF co Coordinate {
            point [
                -1.2976 0.9613 1.3346, -1.2976 0.9613 1.3386, -1.3009 1.0037 1.3386, -1.3009 1.0037 1.3346, -1.3129 1.0464 1.3386, -1.3129 1.0464 1.3346, -1.3267 1.0719 1.3386, -1.3267 1.0719 1.3346, -1.3458 1.0941 1.3386, -1.3458 1.0941 1.3346, -1.3647 1.1076 1.3386, -1.3647 1.1076 1.3346, -1.3851 1.1155 1.3386, -1.3851 1.1155 1.3346, -1.4118 1.1189 1.3386, -1.4118 1.1189 1.3346, -1.4159 0.7962 1.3386, -1.395 0.7981 1.3386, -1.4159 0.7962 1.3346, -1.3937 0.7983 1.3346, -1.3937 0.7983 1.3386, -1.3704 0.8059 1.3386, -1.3704 0.8059 1.3346, -1.3508 0.8182 1.3386, -1.3508 0.8182 1.3346, -1.3328 0.8368 1.3386, -1.3328 0.8368 1.3346, -1.314 0.8687 1.3386, -1.314 0.8687 1.3346, -1.3022 0.9083 1.3386, -1.3022 0.9083 1.3346, -1.4301 0.7981 1.3386, -1.446 0.8003 1.3346, -1.446 0.8003 1.3386, -1.4662 0.8087 1.3346, -1.4662 0.8087 1.3386, -1.4846 0.8222 1.3346, -1.4846 0.8222 1.3386, -1.5037 0.845 1.3346, -1.5037 0.845 1.3386, -1.5126 0.8605 1.3346, -1.5126 0.8605 1.3386, -1.5265 0.9004 1.3346, -1.5265 0.9004 1.3386, -1.5319 0.9538 1.3346, -1.5319 0.9538 1.3386, -1.4365 1.1164 1.3386, -1.4365 1.1164 1.3346, -1.4593 1.1088 1.3386, -1.4593 1.1088 1.3346, -1.4785 1.0966 1.3386, -1.4785 1.0966 1.3346, -1.4966 1.0779 1.3386, -1.4966 1.0779 1.3346, -1.5153 1.0461 1.3386, -1.5153 1.0461 1.3346, -1.5273 1.0065 1.3386, -1.5273 1.0065 1.3346, -1.4973 0.9572 1.3346, -1.4933 0.913 1.3346, -1.483 0.8805 1.3346, -1.473 0.8628 1.3346, -1.4601 0.8479 1.3346, -1.4463 0.8381 1.3346, -1.4325 0.8328 1.3346, -1.4158 0.8308 1.3346, -1.3973 0.8329 1.3346, -1.3826 0.8382 1.3346, -1.3696 0.8468 1.3346, -1.3581 0.8589 1.3346, -1.3459 0.8793 1.3346, -1.336 0.9118 1.3346, -1.3321 0.9566 1.3346, -1.336 1.0032 1.3346, -1.3456 1.0355 1.3346, -1.3538 1.0507 1.3346, -1.3658 1.0655 1.3346, -1.3795 1.0759 1.3346, -1.3948 1.082 1.3346, -1.4137 1.0843 1.3346, -1.4309 1.0822 1.3346, -1.445 1.0769 1.3346, -1.4581 1.0679 1.3346, -1.472 1.0524 1.3346, -1.4852 1.0281 1.3346, -1.4948 0.9925 1.3346, -1.3321 0.9566 1.3386, -1.336 0.9118 1.3386, -1.3459 0.8793 1.3386, -1.3581 0.8589 1.3386, -1.3696 0.8468 1.3386, -1.3826 0.8382 1.3386, -1.3973 0.8329 1.3386, -1.4158 0.8308 1.3386, -1.4137 1.0843 1.3386, -1.3948 1.082 1.3386, -1.3795 1.0759 1.3386, -1.3658 1.0655 1.3386, -1.3538 1.0507 1.3386, -1.3456 1.0355 1.3386, -1.336 1.0032 1.3386, -1.4973 0.9572 1.3386, -1.4948 0.9925 1.3386, -1.4852 1.0281 1.3386, -1.472 1.0524 1.3386, -1.4581 1.0679 1.3386, -1.445 1.0769 1.3386, -1.4309 1.0822 1.3386, -1.4325 0.8328 1.3386, -1.4463 0.8381 1.3386, -1.4601 0.8479 1.3386, -1.473 0.8628 1.3386, -1.483 0.8805 1.3386, -1.4933 0.913 1.3386, -1.2124 1.0446 1.3346, -1.2124 1.0446 1.3386, -1.0887 0.8001 1.3346, -1.0887 0.8001 1.3386, -1.2208 1.0651 1.3346, -1.2208 1.0651 1.3386, -1.2169 1.0547 1.3386, -1.2169 1.0547 1.3346, -1.2217 1.0651 1.3346, -1.2217 1.0651 1.3386, -1.2208 1.021 1.3346, -1.2208 1.021 1.3386, -1.2209 1.0431 1.3386, -1.2209 1.0431 1.3346, -1.2208 0.8001 1.3346, -1.2208 0.8001 1.3386, -1.2515 0.8001 1.3346, -1.2515 0.8001 1.3386, -1.2515 1.115 1.3346, -1.2515 1.115 1.3386, -1.2131 1.115 1.3346, -1.2131 1.115 1.3386, -1.0918 0.8755 1.3346, -1.0918 0.8755 1.3386, -1.0815 0.8538 1.3346, -1.0815 0.8538 1.3386, -1.0864 0.8648 1.3386, -1.0864 0.8648 1.3346, -1.0809 0.8538 1.3346, -1.0809 0.8538 1.3386, -1.0825 0.8996 1.3346, -1.0825 0.8996 1.3386, -1.0822 0.8767 1.3386, -1.0822 0.8767 1.3346, -1.0825 1.115 1.3346, -1.0825 1.115 1.3386, -1.0518 1.115 1.3346, -1.0518 1.115 1.3386, -1.0518 0.8001 1.3346, -1.0518 0.8001 1.3386, -1.5002 -0.881 1.3386, -1.5002 -0.881 1.3346, -1.522 -0.8956 1.3346, -1.5549 -0.9088 1.3346, -1.5549 -0.9088 1.3386, -1.5505 -0.9076 1.3386, -1.5505 -0.9076 1.3346, -1.5434 -0.9046 1.3386, -1.522 -0.8956 1.3386, -1.5549 -0.88 1.3346, -1.5549 -0.88 1.3386, -1.5434 -0.8753 1.3386, -1.517 -0.8647 1.3346, -1.517 -0.8647 1.3386, -1.4826 -0.8425 1.3346, -1.4826 -0.8425 1.3386, -1.4714 -0.8425 1.3346, -1.4714 -0.8425 1.3386, -1.4714 -1.0816 1.3346, -1.4714 -1.0816 1.3386, -1.5002 -1.0816 1.3346, -1.5002 -1.0816 1.3386, -1.5002 -1.0816 1.3386
            ]
        }
        coordIndex [
            0,1,2,-1,0,2,3,-1,3,2,4,-1,3,4,5,-1,5,4,6,-1,5,6,7,-1,7,6,8,-1,7,8,9,-1,9,8,10,-1,9,10,11,-1,11,10,12,-1,11,12,13,-1,13,12,14,-1,13,14,15,-1,16,17,18,-1,18,17,19,-1,17,20,19,-1,19,20,21,-1,19,21,22,-1,22,21,23,-1,22,23,24,-1,24,23,25,-1,24,25,26,-1,26,25,27,-1,26,27,28,-1,28,27,29,-1,28,29,30,-1,30,29,1,-1,30,1,0,-1,16,18,31,-1,31,18,32,-1,31,32,33,-1,33,32,34,-1,33,34,35,-1,35,34,36,-1,35,36,37,-1,37,36,38,-1,37,38,39,-1,39,38,40,-1,39,40,41,-1,41,40,42,-1,41,42,43,-1,43,42,44,-1,43,44,45,-1,15,14,46,-1,15,46,47,-1,47,46,48,-1,47,48,49,-1,49,48,50,-1,49,50,51,-1,51,50,52,-1,51,52,53,-1,53,52,54,-1,53,54,55,-1,55,54,56,-1,55,56,57,-1,57,56,45,-1,57,45,44,-1,58,44,59,-1,59,44,42,-1,59,42,60,-1,60,42,40,-1,60,40,61,-1,61,40,38,-1,61,38,62,-1,62,38,36,-1,62,36,63,-1,63,36,34,-1,63,34,64,-1,64,34,32,-1,64,32,65,-1,65,32,18,-1,65,18,66,-1,66,18,19,-1,66,19,67,-1,67,19,22,-1,67,22,68,-1,68,22,24,-1,68,24,69,-1,69,24,26,-1,69,26,70,-1,70,26,28,-1,70,28,71,-1,71,28,30,-1,71,30,72,-1,72,30,0,-1,72,0,73,-1,73,0,3,-1,73,3,74,-1,74,3,5,-1,74,5,75,-1,75,5,7,-1,75,7,76,-1,76,7,9,-1,76,9,77,-1,77,9,11,-1,77,11,78,-1,78,11,13,-1,78,13,79,-1,79,13,15,-1,79,15,80,-1,80,15,47,-1,80,47,81,-1,81,47,49,-1,81,49,82,-1,82,49,51,-1,82,51,83,-1,83,51,53,-1,83,53,84,-1,84,53,55,-1,84,55,85,-1,85,55,57,-1,85,57,58,-1,58,57,44,-1,72,86,87,-1,72,87,71,-1,71,87,88,-1,71,88,70,-1,70,88,89,-1,70,89,69,-1,69,89,90,-1,69,90,68,-1,68,90,91,-1,68,91,67,-1,67,91,92,-1,67,92,66,-1,66,92,93,-1,66,93,65,-1,79,94,95,-1,79,95,78,-1,78,95,96,-1,78,96,77,-1,77,96,97,-1,77,97,76,-1,76,97,98,-1,76,98,75,-1,75,98,99,-1,75,99,74,-1,74,99,100,-1,74,100,73,-1,73,100,86,-1,73,86,72,-1,58,101,102,-1,58,102,85,-1,85,102,103,-1,85,103,84,-1,84,103,104,-1,84,104,83,-1,83,104,105,-1,83,105,82,-1,82,105,106,-1,82,106,81,-1,81,106,107,-1,81,107,80,-1,80,107,94,-1,80,94,79,-1,65,93,108,-1,65,108,64,-1,64,108,109,-1,64,109,63,-1,63,109,110,-1,63,110,62,-1,62,110,111,-1,62,111,61,-1,61,111,112,-1,61,112,60,-1,60,112,113,-1,60,113,59,-1,59,113,101,-1,59,101,58,-1,114,115,116,-1,116,115,117,-1,118,119,120,-1,118,120,121,-1,121,120,115,-1,121,115,114,-1,122,123,118,-1,118,123,119,-1,124,125,126,-1,124,126,127,-1,127,126,123,-1,127,123,122,-1,128,129,124,-1,124,129,125,-1,130,131,128,-1,128,131,129,-1,132,133,130,-1,130,133,131,-1,134,135,132,-1,132,135,133,-1,136,137,134,-1,134,137,135,-1,138,139,140,-1,138,140,141,-1,141,140,137,-1,141,137,136,-1,142,143,138,-1,138,143,139,-1,144,145,146,-1,144,146,147,-1,147,146,143,-1,147,143,142,-1,148,149,144,-1,144,149,145,-1,150,151,148,-1,148,151,149,-1,152,153,150,-1,150,153,151,-1,152,116,153,-1,153,116,117,-1,152,150,144,-1,144,150,148,-1,130,128,132,-1,132,128,124,-1,124,127,132,-1,132,127,122,-1,132,122,134,-1,134,122,118,-1,144,147,152,-1,152,147,142,-1,152,142,116,-1,116,142,138,-1,138,141,116,-1,116,141,136,-1,116,136,114,-1,114,136,134,-1,114,134,121,-1,121,134,118,-1,154,155,156,-1,157,158,159,-1,157,159,160,-1,160,159,161,-1,160,161,156,-1,156,161,162,-1,156,162,154,-1,163,164,157,-1,157,164,158,-1,164,163,165,-1,165,163,166,-1,165,166,167,-1,167,166,168,-1,167,168,169,-1,170,171,168,-1,168,171,169,-1,172,173,170,-1,170,173,171,-1,174,175,172,-1,172,175,173,-1,174,155,175,-1,175,155,154,-1,174,172,155,-1,155,172,170,-1,170,168,155,-1,155,168,166,-1,155,166,156,-1,156,166,163,-1,156,163,160,-1,160,163,157,-1,
        ]
    }
}
Shape{
    appearance Appearance {
        material  Material 	{
            diffuseColor 0.10980392156862745 0.10980392156862745 0.10980392156862745
            specularColor 0.0784313725490196 0.0784313725490196 0.0784313725490196
            ambientIntensity 0.2
            transparency 0
            shininess 0.5
        }
    }
    geometry IndexedFaceSet {
        ccw TRUE
        solid FALSE
        coord DEF co Coordinate {
            point [
                -1.483 0.8805 1.3386, -1.473 0.8628 1.3386, -1.3321 0.9566 1.3386, -1.4933 0.913 1.3386, -1.336 1.0032 1.3386, -1.4948 0.9925 1.3386, -1.4973 0.9572 1.3386, -1.3456 1.0355 1.3386, -1.3538 1.0507 1.3386, -1.4852 1.0281 1.3386, -1.472 1.0524 1.3386, -1.3826 0.8382 1.3386, -1.3696 0.8468 1.3386, -1.3581 0.8589 1.3386, -1.3459 0.8793 1.3386, -1.336 0.9118 1.3386, -1.4309 1.0822 1.3386, -1.3658 1.0655 1.3386, -1.445 1.0769 1.3386, -1.4581 1.0679 1.3386, -1.4463 0.8381 1.3386, -1.4325 0.8328 1.3386, -1.4601 0.8479 1.3386, -1.4158 0.8308 1.3386, -1.3973 0.8329 1.3386, -1.3795 1.0759 1.3386, -1.3948 1.082 1.3386, -1.4137 1.0843 1.3386, -1.4137 1.0843 1.3386
            ]
        }
        coordIndex [
            0,1,2,-1,0,2,3,-1,4,5,2,-1,2,5,6,-1,2,6,3,-1,4,7,5,-1,5,7,8,-1,5,8,9,-1,9,8,10,-1,11,12,1,-1,1,12,13,-1,13,14,1,-1,1,14,15,-1,1,15,2,-1,16,8,17,-1,16,18,8,-1,8,18,19,-1,8,19,10,-1,20,21,22,-1,22,21,23,-1,22,23,1,-1,1,23,24,-1,1,24,11,-1,25,26,17,-1,17,26,27,-1,17,27,16,-1,
        ]
    }
}
Shape{
    appearance Appearance {
        material  Material 	{
            diffuseColor 1.0 1.0 1.0
            specularColor 0.8784313725490196 0.8784313725490196 0.8784313725490196
            ambientIntensity 0.2
            transparency 0
            shininess 0.5
        }
    }
    geometry IndexedFaceSet {
        ccw TRUE
        solid FALSE
        coord DEF co Coordinate {
            point [
                -0.0204 0.1209 0.2402, -0.0291 0.1182 0.2402, -0.0204 0.1472 0.2402, -0.0291 0.1508 0.2402, 0.0125 0.1326 0.2402, 0.0276 0.129 0.2402, -0.0512 0.0992 0.2402, -0.0512 0.1107 0.2402, 0.0152 0.1334 0.2402, 0.018 0.1339 0.2402, 0.0276 0.1395 0.2402, 0.018 0.1342 0.2402, 0.0152 0.1347 0.2402, 0.0125 0.1354 0.2402, -0.0512 0.1703 0.2402, -0.0512 0.1587 0.2402, -0.0291 0.1508 0.2362, -0.0512 0.1587 0.2362, -0.0291 0.1182 0.2362, -0.0512 0.1107 0.2362, -0.0512 0.0992 0.2362, 0.0276 0.129 0.2362, 0.0276 0.1395 0.2362, -0.0512 0.1703 0.2362, 0.0125 0.1354 0.2362, 0.0152 0.1347 0.2362, 0.018 0.1342 0.2362, 0.018 0.1339 0.2362, 0.0152 0.1334 0.2362, 0.0125 0.1326 0.2362, -0.0204 0.1209 0.2362, -0.0204 0.1472 0.2362, 0.0276 0.0523 0.2402, 0.0276 0.0523 0.2362, 0.0276 0.0301 0.2402, 0.0276 0.0301 0.2362, 0.0264 0.0637 0.2402, 0.0264 0.0637 0.2362, 0.0231 0.0729 0.2402, 0.0231 0.0729 0.2362, 0.0181 0.0807 0.2402, 0.0181 0.0807 0.2362, 0.0152 0.0837 0.2402, 0.0152 0.0837 0.2362, 0.0089 0.0885 0.2402, 0.0089 0.0885 0.2362, 0.0013 0.0918 0.2402, 0.0013 0.0918 0.2362, -0.0069 0.0933 0.2402, -0.0069 0.0933 0.2362, -0.0108 0.0934 0.2402, -0.0108 0.0934 0.2362, -0.0213 0.0923 0.2402, -0.0213 0.0923 0.2362, -0.0296 0.0895 0.2402, -0.0296 0.0895 0.2362, -0.0366 0.085 0.2402, -0.0366 0.085 0.2362, -0.0428 0.0785 0.2402, -0.0428 0.0785 0.2362, -0.0476 0.0703 0.2402, -0.0476 0.0703 0.2362, -0.0503 0.0612 0.2402, -0.0503 0.0612 0.2362, -0.0512 0.0515 0.2402, -0.0512 0.0515 0.2362, -0.0512 0.0301 0.2402, -0.0512 0.0301 0.2362, -0.011 0.0829 0.2402, -0.0032 0.0822 0.2402, 0.003 0.0804 0.2402, 0.0079 0.0777 0.2402, 0.0119 0.0738 0.2402, 0.0157 0.0681 0.2402, 0.0179 0.0616 0.2402, 0.0189 0.0522 0.2402, 0.0189 0.0406 0.2402, -0.0425 0.0406 0.2402, -0.0425 0.0518 0.2402, -0.0417 0.0601 0.2402, -0.0397 0.0667 0.2402, -0.0365 0.072 0.2402, -0.0322 0.0764 0.2402, -0.0268 0.0798 0.2402, -0.0206 0.0819 0.2402, -0.0425 0.0518 0.2362, -0.0425 0.0406 0.2362, -0.0417 0.0601 0.2362, -0.0397 0.0667 0.2362, -0.0365 0.072 0.2362, -0.0322 0.0764 0.2362, -0.0268 0.0798 0.2362, -0.0206 0.0819 0.2362, -0.011 0.0829 0.2362, -0.0032 0.0822 0.2362, 0.003 0.0804 0.2362, 0.0079 0.0777 0.2362, 0.0119 0.0738 0.2362, 0.0157 0.0681 0.2362, 0.0179 0.0616 0.2362, 0.0189 0.0522 0.2362, 0.0189 0.0406 0.2362, 0.0276 -0.0276 0.2402, 0.0276 -0.0276 0.2362, -0.0512 -0.0276 0.2402, -0.0512 -0.0276 0.2362, 0.0276 0.0128 0.2402, 0.0276 0.0128 0.2362, 0.0189 0.0128 0.2402, 0.0189 0.0128 0.2362, 0.0189 -0.017 0.2402, 0.0189 -0.017 0.2362, -0.007 -0.017 0.2402, -0.007 -0.017 0.2362, -0.007 0.0109 0.2402, -0.007 0.0109 0.2362, -0.0156 0.0109 0.2402, -0.0156 0.0109 0.2362, -0.0156 -0.017 0.2402, -0.0156 -0.017 0.2362, -0.0425 -0.017 0.2402, -0.0425 -0.017 0.2362, -0.0425 0.0147 0.2402, -0.0425 0.0147 0.2362, -0.0512 0.0147 0.2402, -0.0512 0.0147 0.2362, -0.0516 -0.0692 0.2362, -0.0521 -0.0646 0.2362, -0.0521 -0.0646 0.2402, -0.0511 -0.0743 0.2362, -0.0511 -0.0743 0.2402, -0.0485 -0.082 0.2402, -0.0485 -0.082 0.2362, -0.0443 -0.0884 0.2402, -0.0443 -0.0884 0.2362, -0.0381 -0.0943 0.2402, -0.0381 -0.0943 0.2362, -0.0306 -0.0984 0.2402, -0.0306 -0.0984 0.2362, -0.0222 -0.1008 0.2402, -0.0222 -0.1008 0.2362, -0.0133 -0.1015 0.2402, -0.0133 -0.1015 0.2362, -0.0021 -0.1004 0.2402, -0.0021 -0.1004 0.2362, 0.0069 -0.0973 0.2402, 0.0069 -0.0973 0.2362, 0.0142 -0.0927 0.2402, 0.0142 -0.0927 0.2362, 0.0209 -0.0859 0.2402, 0.0209 -0.0859 0.2362, 0.0252 -0.0785 0.2402, 0.0252 -0.0785 0.2362, 0.0278 -0.0699 0.2402, 0.0278 -0.0699 0.2362, 0.0285 -0.0614 0.2402, 0.0285 -0.0614 0.2362, 0.0279 -0.052 0.2402, 0.0279 -0.052 0.2362, 0.0254 -0.0429 0.2402, 0.0254 -0.0429 0.2362, 0.0149 -0.0429 0.2402, 0.0149 -0.0429 0.2362, 0.0187 -0.0518 0.2402, 0.0187 -0.0518 0.2362, 0.0199 -0.0614 0.2402, 0.0199 -0.0614 0.2362, 0.019 -0.0691 0.2402, 0.019 -0.0691 0.2362, 0.0169 -0.075 0.2402, 0.0169 -0.075 0.2362, 0.0132 -0.0806 0.2402, 0.0132 -0.0806 0.2362, 0.0079 -0.0853 0.2402, 0.0079 -0.0853 0.2362, 0.0018 -0.0885 0.2402, 0.0018 -0.0885 0.2362, -0.0067 -0.0906 0.2402, -0.0067 -0.0906 0.2362, -0.0126 -0.0909 0.2402, -0.0126 -0.0909 0.2362, -0.0211 -0.0901 0.2402, -0.0211 -0.0901 0.2362, -0.0279 -0.088 0.2402, -0.0279 -0.088 0.2362, -0.0334 -0.0847 0.2402, -0.0334 -0.0847 0.2362, -0.0372 -0.0811 0.2402, -0.0372 -0.0811 0.2362, -0.0405 -0.0762 0.2402, -0.0405 -0.0762 0.2362, -0.0427 -0.0704 0.2402, -0.0427 -0.0704 0.2362, -0.0435 -0.0631 0.2402, -0.0435 -0.0631 0.2362, -0.0423 -0.0527 0.2402, -0.0423 -0.0527 0.2362, -0.0392 -0.0443 0.2402, -0.0392 -0.0443 0.2362, -0.0384 -0.0429 0.2402, -0.0384 -0.0429 0.2362, -0.0471 -0.0429 0.2402, -0.0471 -0.0429 0.2362, -0.0505 -0.0513 0.2362, -0.0505 -0.0513 0.2402, -0.0516 -0.0593 0.2362, -0.0521 -0.0624 0.2402, -0.0521 -0.0624 0.2362, 0.0276 -0.1485 0.2402, 0.0276 -0.1485 0.2362, -0.0512 -0.1485 0.2402, -0.0512 -0.1485 0.2362, 0.0276 -0.138 0.2402, 0.0276 -0.138 0.2362, -0.0425 -0.138 0.2402, -0.0425 -0.138 0.2362, -0.0425 -0.1082 0.2402, -0.0425 -0.1082 0.2362, -0.0512 -0.1082 0.2402, -0.0512 -0.1082 0.2362, -0.0512 -0.1082 0.2362
            ]
        }
        coordIndex [
            0,1,2,-1,2,1,3,-1,4,5,0,-1,0,5,6,-1,0,6,1,-1,1,6,7,-1,4,8,5,-1,5,8,9,-1,5,9,10,-1,10,9,11,-1,10,11,12,-1,12,13,10,-1,10,13,2,-1,10,2,14,-1,14,2,3,-1,14,3,15,-1,3,16,15,-1,15,16,17,-1,1,18,3,-1,3,18,16,-1,7,19,1,-1,1,19,18,-1,6,20,7,-1,7,20,19,-1,5,21,6,-1,6,21,20,-1,10,22,5,-1,5,22,21,-1,14,23,10,-1,10,23,22,-1,14,15,23,-1,23,15,17,-1,24,13,12,-1,24,12,25,-1,25,12,11,-1,25,11,26,-1,9,27,11,-1,11,27,26,-1,27,9,8,-1,27,8,28,-1,28,8,4,-1,28,4,29,-1,0,30,4,-1,4,30,29,-1,2,31,0,-1,0,31,30,-1,24,31,13,-1,13,31,2,-1,32,33,34,-1,34,33,35,-1,33,32,36,-1,33,36,37,-1,37,36,38,-1,37,38,39,-1,39,38,40,-1,39,40,41,-1,41,40,42,-1,41,42,43,-1,43,42,44,-1,43,44,45,-1,45,44,46,-1,45,46,47,-1,47,46,48,-1,47,48,49,-1,49,48,50,-1,49,50,51,-1,51,50,52,-1,51,52,53,-1,53,52,54,-1,53,54,55,-1,55,54,56,-1,55,56,57,-1,57,56,58,-1,57,58,59,-1,59,58,60,-1,59,60,61,-1,61,60,62,-1,61,62,63,-1,63,62,64,-1,63,64,65,-1,66,67,64,-1,64,67,65,-1,66,34,67,-1,67,34,35,-1,52,50,68,-1,68,50,48,-1,68,48,69,-1,69,48,46,-1,69,46,70,-1,70,46,44,-1,70,44,71,-1,71,44,42,-1,71,42,72,-1,72,42,40,-1,72,40,73,-1,73,40,38,-1,73,38,74,-1,74,38,36,-1,74,36,75,-1,75,36,32,-1,75,32,76,-1,76,32,34,-1,76,34,77,-1,77,34,66,-1,77,66,78,-1,78,66,64,-1,78,64,79,-1,79,64,62,-1,79,62,80,-1,80,62,60,-1,80,60,81,-1,81,60,58,-1,81,58,82,-1,82,58,56,-1,82,56,83,-1,83,56,54,-1,83,54,84,-1,84,54,52,-1,84,52,68,-1,78,85,77,-1,77,85,86,-1,85,78,79,-1,85,79,87,-1,87,79,80,-1,87,80,88,-1,88,80,81,-1,88,81,89,-1,89,81,82,-1,89,82,90,-1,90,82,83,-1,90,83,91,-1,91,83,84,-1,91,84,92,-1,92,84,68,-1,92,68,93,-1,93,68,69,-1,93,69,94,-1,94,69,70,-1,94,70,95,-1,95,70,71,-1,95,71,96,-1,96,71,72,-1,96,72,97,-1,97,72,73,-1,97,73,98,-1,98,73,74,-1,98,74,99,-1,99,74,75,-1,99,75,100,-1,76,101,75,-1,75,101,100,-1,86,101,77,-1,77,101,76,-1,102,103,104,-1,104,103,105,-1,106,107,102,-1,102,107,103,-1,108,109,106,-1,106,109,107,-1,110,111,108,-1,108,111,109,-1,112,113,110,-1,110,113,111,-1,114,115,112,-1,112,115,113,-1,116,117,114,-1,114,117,115,-1,118,119,116,-1,116,119,117,-1,120,121,118,-1,118,121,119,-1,122,123,120,-1,120,123,121,-1,124,125,122,-1,122,125,123,-1,124,104,125,-1,125,104,105,-1,104,124,122,-1,122,120,104,-1,104,120,118,-1,104,118,102,-1,108,106,110,-1,110,106,102,-1,110,102,112,-1,112,102,118,-1,112,118,114,-1,114,118,116,-1,126,127,128,-1,126,128,129,-1,128,130,129,-1,129,130,131,-1,129,131,132,-1,132,131,133,-1,132,133,134,-1,134,133,135,-1,134,135,136,-1,136,135,137,-1,136,137,138,-1,138,137,139,-1,138,139,140,-1,140,139,141,-1,140,141,142,-1,142,141,143,-1,142,143,144,-1,144,143,145,-1,144,145,146,-1,146,145,147,-1,146,147,148,-1,148,147,149,-1,148,149,150,-1,150,149,151,-1,150,151,152,-1,152,151,153,-1,152,153,154,-1,154,153,155,-1,154,155,156,-1,156,155,157,-1,156,157,158,-1,158,157,159,-1,158,159,160,-1,161,162,159,-1,159,162,160,-1,162,161,163,-1,162,163,164,-1,164,163,165,-1,164,165,166,-1,166,165,167,-1,166,167,168,-1,168,167,169,-1,168,169,170,-1,170,169,171,-1,170,171,172,-1,172,171,173,-1,172,173,174,-1,174,173,175,-1,174,175,176,-1,176,175,177,-1,176,177,178,-1,178,177,179,-1,178,179,180,-1,180,179,181,-1,180,181,182,-1,182,181,183,-1,182,183,184,-1,184,183,185,-1,184,185,186,-1,186,185,187,-1,186,187,188,-1,188,187,189,-1,188,189,190,-1,190,189,191,-1,190,191,192,-1,192,191,193,-1,192,193,194,-1,194,193,195,-1,194,195,196,-1,196,195,197,-1,196,197,198,-1,198,197,199,-1,198,199,200,-1,201,202,199,-1,199,202,200,-1,203,202,204,-1,204,202,201,-1,203,204,205,-1,205,204,206,-1,205,206,207,-1,207,206,128,-1,207,128,127,-1,191,128,193,-1,193,128,206,-1,193,206,195,-1,195,206,204,-1,195,204,197,-1,197,204,201,-1,197,201,199,-1,161,159,163,-1,163,159,157,-1,163,157,165,-1,165,157,155,-1,165,155,167,-1,167,155,153,-1,167,153,169,-1,169,153,151,-1,169,151,171,-1,171,151,149,-1,171,149,173,-1,173,149,147,-1,173,147,175,-1,175,147,145,-1,175,145,177,-1,177,145,143,-1,177,143,179,-1,179,143,141,-1,179,141,181,-1,181,141,139,-1,181,139,183,-1,183,139,137,-1,183,137,185,-1,185,137,135,-1,185,135,187,-1,187,135,133,-1,187,133,189,-1,189,133,131,-1,189,131,191,-1,191,131,130,-1,191,130,128,-1,208,209,210,-1,210,209,211,-1,212,213,208,-1,208,213,209,-1,214,215,212,-1,212,215,213,-1,216,217,214,-1,214,217,215,-1,218,219,216,-1,216,219,217,-1,218,210,219,-1,219,210,211,-1,212,208,214,-1,214,208,210,-1,214,210,216,-1,216,210,218,-1,
        ]
    }
}
Shape{
    appearance Appearance {
        material  Material 	{
            diffuseColor 0.10980392156862745 0.10980392156862745 0.10980392156862745
            specularColor 0.0784313725490196 0.0784313725490196 0.0784313725490196
            ambientIntensity 0.2
            transparency 0
            shininess 0.5
        }
    }
    geometry IndexedFaceSet {
        ccw TRUE
        solid FALSE
        coord DEF co Coordinate {
            point [
                -0.0204 0.1209 0.2362, -0.0204 0.1472 0.2362, 0.0125 0.1326 0.2362, 0.0125 0.1354 0.2362, 0.0152 0.1334 0.2362, 0.0152 0.1347 0.2362, 0.018 0.1339 0.2362, 0.018 0.1342 0.2362, 0.0189 0.0522 0.2362, 0.0189 0.0406 0.2362, -0.0425 0.0406 0.2362, -0.0206 0.0819 0.2362, -0.011 0.0829 0.2362, -0.0268 0.0798 0.2362, -0.0032 0.0822 0.2362, 0.003 0.0804 0.2362, 0.0179 0.0616 0.2362, -0.0425 0.0518 0.2362, -0.0417 0.0601 0.2362, -0.0397 0.0667 0.2362, 0.0079 0.0777 0.2362, 0.0119 0.0738 0.2362, 0.0157 0.0681 0.2362, -0.0365 0.072 0.2362, -0.0322 0.0764 0.2362, -0.0322 0.0764 0.2362
            ]
        }
        coordIndex [
            0,1,2,-1,2,1,3,-1,2,3,4,-1,4,3,5,-1,4,5,6,-1,6,5,7,-1,8,9,10,-1,11,12,8,-1,11,8,13,-1,12,14,8,-1,8,14,15,-1,8,15,16,-1,10,17,8,-1,8,17,18,-1,8,18,19,-1,20,21,15,-1,15,21,22,-1,15,22,16,-1,19,23,8,-1,8,23,24,-1,8,24,13,-1,
        ]
    }
}
Shape{
    appearance Appearance {
        material  Material 	{
            diffuseColor 1.0 1.0 1.0
            specularColor 0.30196078431372547 0.30196078431372547 0.30196078431372547
            ambientIntensity 0.2
            transparency 0
            shininess 0.5
        }
    }
    geometry IndexedFaceSet {
        ccw TRUE
        solid FALSE
        coord DEF co Coordinate {
            point [
                0.6181 0.0591 1.4961, 0.6181 -0.3346 1.4961, 0.6181 0.0591 1.1417, 0.6181 -0.3346 1.1417, 0.3819 0.0591 1.4961, 0.3819 0.0591 1.1417, 0.3819 -0.3346 1.4961, 0.3819 -0.3346 1.1417, 1.6181 0.0591 1.4961, 1.6181 -0.3346 1.4961, 1.6181 0.0591 1.1417, 1.6181 -0.3346 1.1417, 1.3819 0.0591 1.4961, 1.3819 0.0591 1.1417, 1.3819 -0.3346 1.4961, 1.3819 -0.3346 1.1417, 1.3819 -0.3346 1.1417
            ]
        }
        coordIndex [
            0,1,2,-1,2,1,3,-1,4,0,5,-1,5,0,2,-1,6,4,7,-1,7,4,5,-1,1,6,3,-1,3,6,7,-1,4,6,0,-1,0,6,1,-1,7,5,3,-1,3,5,2,-1,8,9,10,-1,10,9,11,-1,12,8,13,-1,13,8,10,-1,14,12,15,-1,15,12,13,-1,9,14,11,-1,11,14,15,-1,12,14,8,-1,8,14,9,-1,15,13,11,-1,11,13,10,-1,
        ]
    }
}